ISO-10303-21;
HEADER;
FILE_DESCRIPTION(('Open CASCADE Model'),'2;1');
FILE_NAME('Open CASCADE Shape Model','2026-10-02T21:13:38',('Author'),(
    'Open CASCADE'),'Open CASCADE STEP processor 7.9','Open CASCADE 7.9'
  ,'Unknown');
FILE_SCHEMA(('AUTOMOTIVE_DESIGN { 1 0 10303 214 1 1 1 1 }'));
ENDSEC;
DATA;
#1 = APPLICATION_PROTOCOL_DEFINITION('international standard',
  'automotive_design',2000,#2);
#2 = APPLICATION_CONTEXT(
  'core data for automotive mechanical design processes');
#3 = SHAPE_DEFINITION_REPRESENTATION(#4,#10);
#4 = PRODUCT_DEFINITION_SHAPE('','',#5);
#5 = PRODUCT_DEFINITION('design','',#6,#9);
#6 = PRODUCT_DEFINITION_FORMATION('','',#7);
#7 = PRODUCT('STEPPED DRIVE SHAFT TURNED EN8 2',
  'STEPPED DRIVE SHAFT TURNED EN8 2','',(#8));
#8 = PRODUCT_CONTEXT('',#2,'mechanical');
#9 = PRODUCT_DEFINITION_CONTEXT('part definition',#2,'design');
#10 = ADVANCED_BREP_SHAPE_REPRESENTATION('',(#11,#15),#1267);
#11 = AXIS2_PLACEMENT_3D('',#12,#13,#14);
#12 = CARTESIAN_POINT('',(0.,0.,0.));
#13 = DIRECTION('',(0.,0.,1.));
#14 = DIRECTION('',(1.,0.,-0.));
#15 = MANIFOLD_SOLID_BREP('',#16);
#16 = CLOSED_SHELL('',(#17,#105,#140,#175,#342,#397,#432,#508,#557,#606,
    #633,#637,#692,#699,#734,#1235,#1263));
#17 = ADVANCED_FACE('',(#18),#31,.T.);
#18 = FACE_BOUND('',#19,.T.);
#19 = EDGE_LOOP('',(#20,#54,#77,#104));
#20 = ORIENTED_EDGE('',*,*,#21,.F.);
#21 = EDGE_CURVE('',#22,#22,#24,.T.);
#22 = VERTEX_POINT('',#23);
#23 = CARTESIAN_POINT('',(20.,-4.898587196589E-15,65.));
#24 = SURFACE_CURVE('',#25,(#30,#42),.PCURVE_S1.);
#25 = CIRCLE('',#26,20.);
#26 = AXIS2_PLACEMENT_3D('',#27,#28,#29);
#27 = CARTESIAN_POINT('',(0.,0.,65.));
#28 = DIRECTION('',(0.,0.,1.));
#29 = DIRECTION('',(1.,0.,-0.));
#30 = PCURVE('',#31,#36);
#31 = CYLINDRICAL_SURFACE('',#32,20.);
#32 = AXIS2_PLACEMENT_3D('',#33,#34,#35);
#33 = CARTESIAN_POINT('',(0.,0.,50.));
#34 = DIRECTION('',(0.,0.,1.));
#35 = DIRECTION('',(1.,0.,-0.));
#36 = DEFINITIONAL_REPRESENTATION('',(#37),#41);
#37 = LINE('',#38,#39);
#38 = CARTESIAN_POINT('',(0.,15.));
#39 = VECTOR('',#40,1.);
#40 = DIRECTION('',(1.,0.));
#41 = ( GEOMETRIC_REPRESENTATION_CONTEXT(2) 
PARAMETRIC_REPRESENTATION_CONTEXT() REPRESENTATION_CONTEXT('2D SPACE',''
  ) );
#42 = PCURVE('',#43,#48);
#43 = PLANE('',#44);
#44 = AXIS2_PLACEMENT_3D('',#45,#46,#47);
#45 = CARTESIAN_POINT('',(0.,0.,65.));
#46 = DIRECTION('',(0.,0.,1.));
#47 = DIRECTION('',(1.,0.,-0.));
#48 = DEFINITIONAL_REPRESENTATION('',(#49),#53);
#49 = CIRCLE('',#50,20.);
#50 = AXIS2_PLACEMENT_2D('',#51,#52);
#51 = CARTESIAN_POINT('',(0.,0.));
#52 = DIRECTION('',(1.,0.));
#53 = ( GEOMETRIC_REPRESENTATION_CONTEXT(2) 
PARAMETRIC_REPRESENTATION_CONTEXT() REPRESENTATION_CONTEXT('2D SPACE',''
  ) );
#54 = ORIENTED_EDGE('',*,*,#55,.F.);
#55 = EDGE_CURVE('',#56,#22,#58,.T.);
#56 = VERTEX_POINT('',#57);
#57 = CARTESIAN_POINT('',(20.,-4.898587196589E-15,50.));
#58 = SEAM_CURVE('',#59,(#63,#70),.PCURVE_S1.);
#59 = LINE('',#60,#61);
#60 = CARTESIAN_POINT('',(20.,-4.898587196589E-15,50.));
#61 = VECTOR('',#62,1.);
#62 = DIRECTION('',(0.,0.,1.));
#63 = PCURVE('',#31,#64);
#64 = DEFINITIONAL_REPRESENTATION('',(#65),#69);
#65 = LINE('',#66,#67);
#66 = CARTESIAN_POINT('',(6.28318530718,-0.));
#67 = VECTOR('',#68,1.);
#68 = DIRECTION('',(0.,1.));
#69 = ( GEOMETRIC_REPRESENTATION_CONTEXT(2) 
PARAMETRIC_REPRESENTATION_CONTEXT() REPRESENTATION_CONTEXT('2D SPACE',''
  ) );
#70 = PCURVE('',#31,#71);
#71 = DEFINITIONAL_REPRESENTATION('',(#72),#76);
#72 = LINE('',#73,#74);
#73 = CARTESIAN_POINT('',(0.,-0.));
#74 = VECTOR('',#75,1.);
#75 = DIRECTION('',(0.,1.));
#76 = ( GEOMETRIC_REPRESENTATION_CONTEXT(2) 
PARAMETRIC_REPRESENTATION_CONTEXT() REPRESENTATION_CONTEXT('2D SPACE',''
  ) );
#77 = ORIENTED_EDGE('',*,*,#78,.T.);
#78 = EDGE_CURVE('',#56,#56,#79,.T.);
#79 = SURFACE_CURVE('',#80,(#85,#92),.PCURVE_S1.);
#80 = CIRCLE('',#81,20.);
#81 = AXIS2_PLACEMENT_3D('',#82,#83,#84);
#82 = CARTESIAN_POINT('',(0.,0.,50.));
#83 = DIRECTION('',(0.,0.,1.));
#84 = DIRECTION('',(1.,0.,-0.));
#85 = PCURVE('',#31,#86);
#86 = DEFINITIONAL_REPRESENTATION('',(#87),#91);
#87 = LINE('',#88,#89);
#88 = CARTESIAN_POINT('',(0.,0.));
#89 = VECTOR('',#90,1.);
#90 = DIRECTION('',(1.,0.));
#91 = ( GEOMETRIC_REPRESENTATION_CONTEXT(2) 
PARAMETRIC_REPRESENTATION_CONTEXT() REPRESENTATION_CONTEXT('2D SPACE',''
  ) );
#92 = PCURVE('',#93,#98);
#93 = PLANE('',#94);
#94 = AXIS2_PLACEMENT_3D('',#95,#96,#97);
#95 = CARTESIAN_POINT('',(0.,0.,50.));
#96 = DIRECTION('',(0.,0.,1.));
#97 = DIRECTION('',(1.,0.,-0.));
#98 = DEFINITIONAL_REPRESENTATION('',(#99),#103);
#99 = CIRCLE('',#100,20.);
#100 = AXIS2_PLACEMENT_2D('',#101,#102);
#101 = CARTESIAN_POINT('',(0.,0.));
#102 = DIRECTION('',(1.,0.));
#103 = ( GEOMETRIC_REPRESENTATION_CONTEXT(2) 
PARAMETRIC_REPRESENTATION_CONTEXT() REPRESENTATION_CONTEXT('2D SPACE',''
  ) );
#104 = ORIENTED_EDGE('',*,*,#55,.T.);
#105 = ADVANCED_FACE('',(#106,#109),#43,.T.);
#106 = FACE_BOUND('',#107,.T.);
#107 = EDGE_LOOP('',(#108));
#108 = ORIENTED_EDGE('',*,*,#21,.T.);
#109 = FACE_BOUND('',#110,.T.);
#110 = EDGE_LOOP('',(#111));
#111 = ORIENTED_EDGE('',*,*,#112,.F.);
#112 = EDGE_CURVE('',#113,#113,#115,.T.);
#113 = VERTEX_POINT('',#114);
#114 = CARTESIAN_POINT('',(15.,-3.673940397442E-15,65.));
#115 = SURFACE_CURVE('',#116,(#121,#128),.PCURVE_S1.);
#116 = CIRCLE('',#117,15.);
#117 = AXIS2_PLACEMENT_3D('',#118,#119,#120);
#118 = CARTESIAN_POINT('',(0.,0.,65.));
#119 = DIRECTION('',(0.,0.,1.));
#120 = DIRECTION('',(1.,0.,-0.));
#121 = PCURVE('',#43,#122);
#122 = DEFINITIONAL_REPRESENTATION('',(#123),#127);
#123 = CIRCLE('',#124,15.);
#124 = AXIS2_PLACEMENT_2D('',#125,#126);
#125 = CARTESIAN_POINT('',(0.,0.));
#126 = DIRECTION('',(1.,0.));
#127 = ( GEOMETRIC_REPRESENTATION_CONTEXT(2) 
PARAMETRIC_REPRESENTATION_CONTEXT() REPRESENTATION_CONTEXT('2D SPACE',''
  ) );
#128 = PCURVE('',#129,#134);
#129 = CYLINDRICAL_SURFACE('',#130,15.);
#130 = AXIS2_PLACEMENT_3D('',#131,#132,#133);
#131 = CARTESIAN_POINT('',(0.,0.,65.));
#132 = DIRECTION('',(0.,0.,1.));
#133 = DIRECTION('',(1.,0.,-0.));
#134 = DEFINITIONAL_REPRESENTATION('',(#135),#139);
#135 = LINE('',#136,#137);
#136 = CARTESIAN_POINT('',(0.,0.));
#137 = VECTOR('',#138,1.);
#138 = DIRECTION('',(1.,0.));
#139 = ( GEOMETRIC_REPRESENTATION_CONTEXT(2) 
PARAMETRIC_REPRESENTATION_CONTEXT() REPRESENTATION_CONTEXT('2D SPACE',''
  ) );
#140 = ADVANCED_FACE('',(#141,#144),#93,.F.);
#141 = FACE_BOUND('',#142,.F.);
#142 = EDGE_LOOP('',(#143));
#143 = ORIENTED_EDGE('',*,*,#78,.T.);
#144 = FACE_BOUND('',#145,.F.);
#145 = EDGE_LOOP('',(#146));
#146 = ORIENTED_EDGE('',*,*,#147,.F.);
#147 = EDGE_CURVE('',#148,#148,#150,.T.);
#148 = VERTEX_POINT('',#149);
#149 = CARTESIAN_POINT('',(12.5,-3.061616997868E-15,50.));
#150 = SURFACE_CURVE('',#151,(#156,#163),.PCURVE_S1.);
#151 = CIRCLE('',#152,12.5);
#152 = AXIS2_PLACEMENT_3D('',#153,#154,#155);
#153 = CARTESIAN_POINT('',(0.,0.,50.));
#154 = DIRECTION('',(0.,0.,1.));
#155 = DIRECTION('',(1.,0.,-0.));
#156 = PCURVE('',#93,#157);
#157 = DEFINITIONAL_REPRESENTATION('',(#158),#162);
#158 = CIRCLE('',#159,12.5);
#159 = AXIS2_PLACEMENT_2D('',#160,#161);
#160 = CARTESIAN_POINT('',(0.,0.));
#161 = DIRECTION('',(1.,0.));
#162 = ( GEOMETRIC_REPRESENTATION_CONTEXT(2) 
PARAMETRIC_REPRESENTATION_CONTEXT() REPRESENTATION_CONTEXT('2D SPACE',''
  ) );
#163 = PCURVE('',#164,#169);
#164 = CYLINDRICAL_SURFACE('',#165,12.5);
#165 = AXIS2_PLACEMENT_3D('',#166,#167,#168);
#166 = CARTESIAN_POINT('',(0.,0.,0.));
#167 = DIRECTION('',(0.,0.,1.));
#168 = DIRECTION('',(1.,0.,-0.));
#169 = DEFINITIONAL_REPRESENTATION('',(#170),#174);
#170 = LINE('',#171,#172);
#171 = CARTESIAN_POINT('',(0.,50.));
#172 = VECTOR('',#173,1.);
#173 = DIRECTION('',(1.,0.));
#174 = ( GEOMETRIC_REPRESENTATION_CONTEXT(2) 
PARAMETRIC_REPRESENTATION_CONTEXT() REPRESENTATION_CONTEXT('2D SPACE',''
  ) );
#175 = ADVANCED_FACE('',(#176,#230),#129,.T.);
#176 = FACE_BOUND('',#177,.T.);
#177 = EDGE_LOOP('',(#178,#201,#228,#229));
#178 = ORIENTED_EDGE('',*,*,#179,.T.);
#179 = EDGE_CURVE('',#113,#180,#182,.T.);
#180 = VERTEX_POINT('',#181);
#181 = CARTESIAN_POINT('',(15.,-3.673940397442E-15,145.));
#182 = SEAM_CURVE('',#183,(#187,#194),.PCURVE_S1.);
#183 = LINE('',#184,#185);
#184 = CARTESIAN_POINT('',(15.,-3.673940397442E-15,65.));
#185 = VECTOR('',#186,1.);
#186 = DIRECTION('',(0.,0.,1.));
#187 = PCURVE('',#129,#188);
#188 = DEFINITIONAL_REPRESENTATION('',(#189),#193);
#189 = LINE('',#190,#191);
#190 = CARTESIAN_POINT('',(6.28318530718,-0.));
#191 = VECTOR('',#192,1.);
#192 = DIRECTION('',(0.,1.));
#193 = ( GEOMETRIC_REPRESENTATION_CONTEXT(2) 
PARAMETRIC_REPRESENTATION_CONTEXT() REPRESENTATION_CONTEXT('2D SPACE',''
  ) );
#194 = PCURVE('',#129,#195);
#195 = DEFINITIONAL_REPRESENTATION('',(#196),#200);
#196 = LINE('',#197,#198);
#197 = CARTESIAN_POINT('',(0.,-0.));
#198 = VECTOR('',#199,1.);
#199 = DIRECTION('',(0.,1.));
#200 = ( GEOMETRIC_REPRESENTATION_CONTEXT(2) 
PARAMETRIC_REPRESENTATION_CONTEXT() REPRESENTATION_CONTEXT('2D SPACE',''
  ) );
#201 = ORIENTED_EDGE('',*,*,#202,.F.);
#202 = EDGE_CURVE('',#180,#180,#203,.T.);
#203 = SURFACE_CURVE('',#204,(#209,#216),.PCURVE_S1.);
#204 = CIRCLE('',#205,15.);
#205 = AXIS2_PLACEMENT_3D('',#206,#207,#208);
#206 = CARTESIAN_POINT('',(0.,0.,145.));
#207 = DIRECTION('',(0.,0.,1.));
#208 = DIRECTION('',(1.,0.,-0.));
#209 = PCURVE('',#129,#210);
#210 = DEFINITIONAL_REPRESENTATION('',(#211),#215);
#211 = LINE('',#212,#213);
#212 = CARTESIAN_POINT('',(0.,80.));
#213 = VECTOR('',#214,1.);
#214 = DIRECTION('',(1.,0.));
#215 = ( GEOMETRIC_REPRESENTATION_CONTEXT(2) 
PARAMETRIC_REPRESENTATION_CONTEXT() REPRESENTATION_CONTEXT('2D SPACE',''
  ) );
#216 = PCURVE('',#217,#222);
#217 = PLANE('',#218);
#218 = AXIS2_PLACEMENT_3D('',#219,#220,#221);
#219 = CARTESIAN_POINT('',(0.,0.,145.));
#220 = DIRECTION('',(0.,0.,1.));
#221 = DIRECTION('',(1.,0.,-0.));
#222 = DEFINITIONAL_REPRESENTATION('',(#223),#227);
#223 = CIRCLE('',#224,15.);
#224 = AXIS2_PLACEMENT_2D('',#225,#226);
#225 = CARTESIAN_POINT('',(0.,0.));
#226 = DIRECTION('',(1.,0.));
#227 = ( GEOMETRIC_REPRESENTATION_CONTEXT(2) 
PARAMETRIC_REPRESENTATION_CONTEXT() REPRESENTATION_CONTEXT('2D SPACE',''
  ) );
#228 = ORIENTED_EDGE('',*,*,#179,.F.);
#229 = ORIENTED_EDGE('',*,*,#112,.T.);
#230 = FACE_BOUND('',#231,.T.);
#231 = EDGE_LOOP('',(#232,#260,#289,#315));
#232 = ORIENTED_EDGE('',*,*,#233,.F.);
#233 = EDGE_CURVE('',#234,#236,#238,.T.);
#234 = VERTEX_POINT('',#235);
#235 = CARTESIAN_POINT('',(-4.,14.456832294801,85.));
#236 = VERTEX_POINT('',#237);
#237 = CARTESIAN_POINT('',(-4.,14.456832294801,125.));
#238 = SURFACE_CURVE('',#239,(#243,#249),.PCURVE_S1.);
#239 = LINE('',#240,#241);
#240 = CARTESIAN_POINT('',(-4.,14.456832294801,65.));
#241 = VECTOR('',#242,1.);
#242 = DIRECTION('',(0.,0.,1.));
#243 = PCURVE('',#129,#244);
#244 = DEFINITIONAL_REPRESENTATION('',(#245),#248);
#245 = B_SPLINE_CURVE_WITH_KNOTS('',1,(#246,#247),.UNSPECIFIED.,.F.,.F.,
  (2,2),(16.,64.),.PIECEWISE_BEZIER_KNOTS.);
#246 = CARTESIAN_POINT('',(1.840729122628,16.));
#247 = CARTESIAN_POINT('',(1.840729122628,64.));
#248 = ( GEOMETRIC_REPRESENTATION_CONTEXT(2) 
PARAMETRIC_REPRESENTATION_CONTEXT() REPRESENTATION_CONTEXT('2D SPACE',''
  ) );
#249 = PCURVE('',#250,#255);
#250 = PLANE('',#251);
#251 = AXIS2_PLACEMENT_3D('',#252,#253,#254);
#252 = CARTESIAN_POINT('',(-4.,11.,85.));
#253 = DIRECTION('',(1.,0.,-0.));
#254 = DIRECTION('',(0.,0.,1.));
#255 = DEFINITIONAL_REPRESENTATION('',(#256),#259);
#256 = B_SPLINE_CURVE_WITH_KNOTS('',1,(#257,#258),.UNSPECIFIED.,.F.,.F.,
  (2,2),(16.,64.),.PIECEWISE_BEZIER_KNOTS.);
#257 = CARTESIAN_POINT('',(-4.,-3.456832294801));
#258 = CARTESIAN_POINT('',(44.,-3.456832294801));
#259 = ( GEOMETRIC_REPRESENTATION_CONTEXT(2) 
PARAMETRIC_REPRESENTATION_CONTEXT() REPRESENTATION_CONTEXT('2D SPACE',''
  ) );
#260 = ORIENTED_EDGE('',*,*,#261,.F.);
#261 = EDGE_CURVE('',#262,#234,#264,.T.);
#262 = VERTEX_POINT('',#263);
#263 = CARTESIAN_POINT('',(4.,14.456832294801,85.));
#264 = SURFACE_CURVE('',#265,(#270,#277),.PCURVE_S1.);
#265 = CIRCLE('',#266,15.);
#266 = AXIS2_PLACEMENT_3D('',#267,#268,#269);
#267 = CARTESIAN_POINT('',(0.,0.,85.));
#268 = DIRECTION('',(0.,0.,1.));
#269 = DIRECTION('',(1.,0.,-0.));
#270 = PCURVE('',#129,#271);
#271 = DEFINITIONAL_REPRESENTATION('',(#272),#276);
#272 = LINE('',#273,#274);
#273 = CARTESIAN_POINT('',(0.,20.));
#274 = VECTOR('',#275,1.);
#275 = DIRECTION('',(1.,0.));
#276 = ( GEOMETRIC_REPRESENTATION_CONTEXT(2) 
PARAMETRIC_REPRESENTATION_CONTEXT() REPRESENTATION_CONTEXT('2D SPACE',''
  ) );
#277 = PCURVE('',#278,#283);
#278 = PLANE('',#279);
#279 = AXIS2_PLACEMENT_3D('',#280,#281,#282);
#280 = CARTESIAN_POINT('',(-4.,11.,85.));
#281 = DIRECTION('',(0.,0.,1.));
#282 = DIRECTION('',(1.,0.,-0.));
#283 = DEFINITIONAL_REPRESENTATION('',(#284),#288);
#284 = CIRCLE('',#285,15.);
#285 = AXIS2_PLACEMENT_2D('',#286,#287);
#286 = CARTESIAN_POINT('',(4.,-11.));
#287 = DIRECTION('',(1.,0.));
#288 = ( GEOMETRIC_REPRESENTATION_CONTEXT(2) 
PARAMETRIC_REPRESENTATION_CONTEXT() REPRESENTATION_CONTEXT('2D SPACE',''
  ) );
#289 = ORIENTED_EDGE('',*,*,#290,.T.);
#290 = EDGE_CURVE('',#262,#291,#293,.T.);
#291 = VERTEX_POINT('',#292);
#292 = CARTESIAN_POINT('',(4.,14.456832294801,125.));
#293 = SURFACE_CURVE('',#294,(#298,#304),.PCURVE_S1.);
#294 = LINE('',#295,#296);
#295 = CARTESIAN_POINT('',(4.,14.456832294801,65.));
#296 = VECTOR('',#297,1.);
#297 = DIRECTION('',(0.,0.,1.));
#298 = PCURVE('',#129,#299);
#299 = DEFINITIONAL_REPRESENTATION('',(#300),#303);
#300 = B_SPLINE_CURVE_WITH_KNOTS('',1,(#301,#302),.UNSPECIFIED.,.F.,.F.,
  (2,2),(16.,64.),.PIECEWISE_BEZIER_KNOTS.);
#301 = CARTESIAN_POINT('',(1.300863530961,16.));
#302 = CARTESIAN_POINT('',(1.300863530961,64.));
#303 = ( GEOMETRIC_REPRESENTATION_CONTEXT(2) 
PARAMETRIC_REPRESENTATION_CONTEXT() REPRESENTATION_CONTEXT('2D SPACE',''
  ) );
#304 = PCURVE('',#305,#310);
#305 = PLANE('',#306);
#306 = AXIS2_PLACEMENT_3D('',#307,#308,#309);
#307 = CARTESIAN_POINT('',(4.,11.,85.));
#308 = DIRECTION('',(1.,0.,-0.));
#309 = DIRECTION('',(0.,0.,1.));
#310 = DEFINITIONAL_REPRESENTATION('',(#311),#314);
#311 = B_SPLINE_CURVE_WITH_KNOTS('',1,(#312,#313),.UNSPECIFIED.,.F.,.F.,
  (2,2),(16.,64.),.PIECEWISE_BEZIER_KNOTS.);
#312 = CARTESIAN_POINT('',(-4.,-3.456832294801));
#313 = CARTESIAN_POINT('',(44.,-3.456832294801));
#314 = ( GEOMETRIC_REPRESENTATION_CONTEXT(2) 
PARAMETRIC_REPRESENTATION_CONTEXT() REPRESENTATION_CONTEXT('2D SPACE',''
  ) );
#315 = ORIENTED_EDGE('',*,*,#316,.T.);
#316 = EDGE_CURVE('',#291,#236,#317,.T.);
#317 = SURFACE_CURVE('',#318,(#323,#330),.PCURVE_S1.);
#318 = CIRCLE('',#319,15.);
#319 = AXIS2_PLACEMENT_3D('',#320,#321,#322);
#320 = CARTESIAN_POINT('',(0.,0.,125.));
#321 = DIRECTION('',(0.,0.,1.));
#322 = DIRECTION('',(1.,0.,-0.));
#323 = PCURVE('',#129,#324);
#324 = DEFINITIONAL_REPRESENTATION('',(#325),#329);
#325 = LINE('',#326,#327);
#326 = CARTESIAN_POINT('',(0.,60.));
#327 = VECTOR('',#328,1.);
#328 = DIRECTION('',(1.,0.));
#329 = ( GEOMETRIC_REPRESENTATION_CONTEXT(2) 
PARAMETRIC_REPRESENTATION_CONTEXT() REPRESENTATION_CONTEXT('2D SPACE',''
  ) );
#330 = PCURVE('',#331,#336);
#331 = PLANE('',#332);
#332 = AXIS2_PLACEMENT_3D('',#333,#334,#335);
#333 = CARTESIAN_POINT('',(-4.,11.,125.));
#334 = DIRECTION('',(0.,0.,1.));
#335 = DIRECTION('',(1.,0.,-0.));
#336 = DEFINITIONAL_REPRESENTATION('',(#337),#341);
#337 = CIRCLE('',#338,15.);
#338 = AXIS2_PLACEMENT_2D('',#339,#340);
#339 = CARTESIAN_POINT('',(4.,-11.));
#340 = DIRECTION('',(1.,0.));
#341 = ( GEOMETRIC_REPRESENTATION_CONTEXT(2) 
PARAMETRIC_REPRESENTATION_CONTEXT() REPRESENTATION_CONTEXT('2D SPACE',''
  ) );
#342 = ADVANCED_FACE('',(#343),#164,.T.);
#343 = FACE_BOUND('',#344,.T.);
#344 = EDGE_LOOP('',(#345,#346,#369,#396));
#345 = ORIENTED_EDGE('',*,*,#147,.F.);
#346 = ORIENTED_EDGE('',*,*,#347,.F.);
#347 = EDGE_CURVE('',#348,#148,#350,.T.);
#348 = VERTEX_POINT('',#349);
#349 = CARTESIAN_POINT('',(12.5,-3.061616997868E-15,0.));
#350 = SEAM_CURVE('',#351,(#355,#362),.PCURVE_S1.);
#351 = LINE('',#352,#353);
#352 = CARTESIAN_POINT('',(12.5,-3.061616997868E-15,0.));
#353 = VECTOR('',#354,1.);
#354 = DIRECTION('',(0.,0.,1.));
#355 = PCURVE('',#164,#356);
#356 = DEFINITIONAL_REPRESENTATION('',(#357),#361);
#357 = LINE('',#358,#359);
#358 = CARTESIAN_POINT('',(6.28318530718,-0.));
#359 = VECTOR('',#360,1.);
#360 = DIRECTION('',(0.,1.));
#361 = ( GEOMETRIC_REPRESENTATION_CONTEXT(2) 
PARAMETRIC_REPRESENTATION_CONTEXT() REPRESENTATION_CONTEXT('2D SPACE',''
  ) );
#362 = PCURVE('',#164,#363);
#363 = DEFINITIONAL_REPRESENTATION('',(#364),#368);
#364 = LINE('',#365,#366);
#365 = CARTESIAN_POINT('',(0.,-0.));
#366 = VECTOR('',#367,1.);
#367 = DIRECTION('',(0.,1.));
#368 = ( GEOMETRIC_REPRESENTATION_CONTEXT(2) 
PARAMETRIC_REPRESENTATION_CONTEXT() REPRESENTATION_CONTEXT('2D SPACE',''
  ) );
#369 = ORIENTED_EDGE('',*,*,#370,.T.);
#370 = EDGE_CURVE('',#348,#348,#371,.T.);
#371 = SURFACE_CURVE('',#372,(#377,#384),.PCURVE_S1.);
#372 = CIRCLE('',#373,12.5);
#373 = AXIS2_PLACEMENT_3D('',#374,#375,#376);
#374 = CARTESIAN_POINT('',(0.,0.,0.));
#375 = DIRECTION('',(0.,0.,1.));
#376 = DIRECTION('',(1.,0.,-0.));
#377 = PCURVE('',#164,#378);
#378 = DEFINITIONAL_REPRESENTATION('',(#379),#383);
#379 = LINE('',#380,#381);
#380 = CARTESIAN_POINT('',(0.,0.));
#381 = VECTOR('',#382,1.);
#382 = DIRECTION('',(1.,0.));
#383 = ( GEOMETRIC_REPRESENTATION_CONTEXT(2) 
PARAMETRIC_REPRESENTATION_CONTEXT() REPRESENTATION_CONTEXT('2D SPACE',''
  ) );
#384 = PCURVE('',#385,#390);
#385 = PLANE('',#386);
#386 = AXIS2_PLACEMENT_3D('',#387,#388,#389);
#387 = CARTESIAN_POINT('',(0.,0.,0.));
#388 = DIRECTION('',(0.,0.,1.));
#389 = DIRECTION('',(1.,0.,-0.));
#390 = DEFINITIONAL_REPRESENTATION('',(#391),#395);
#391 = CIRCLE('',#392,12.5);
#392 = AXIS2_PLACEMENT_2D('',#393,#394);
#393 = CARTESIAN_POINT('',(0.,0.));
#394 = DIRECTION('',(1.,0.));
#395 = ( GEOMETRIC_REPRESENTATION_CONTEXT(2) 
PARAMETRIC_REPRESENTATION_CONTEXT() REPRESENTATION_CONTEXT('2D SPACE',''
  ) );
#396 = ORIENTED_EDGE('',*,*,#347,.T.);
#397 = ADVANCED_FACE('',(#398,#401),#217,.T.);
#398 = FACE_BOUND('',#399,.T.);
#399 = EDGE_LOOP('',(#400));
#400 = ORIENTED_EDGE('',*,*,#202,.T.);
#401 = FACE_BOUND('',#402,.T.);
#402 = EDGE_LOOP('',(#403));
#403 = ORIENTED_EDGE('',*,*,#404,.F.);
#404 = EDGE_CURVE('',#405,#405,#407,.T.);
#405 = VERTEX_POINT('',#406);
#406 = CARTESIAN_POINT('',(12.5,-3.061616997868E-15,145.));
#407 = SURFACE_CURVE('',#408,(#413,#420),.PCURVE_S1.);
#408 = CIRCLE('',#409,12.5);
#409 = AXIS2_PLACEMENT_3D('',#410,#411,#412);
#410 = CARTESIAN_POINT('',(0.,0.,145.));
#411 = DIRECTION('',(0.,0.,1.));
#412 = DIRECTION('',(1.,0.,-0.));
#413 = PCURVE('',#217,#414);
#414 = DEFINITIONAL_REPRESENTATION('',(#415),#419);
#415 = CIRCLE('',#416,12.5);
#416 = AXIS2_PLACEMENT_2D('',#417,#418);
#417 = CARTESIAN_POINT('',(0.,0.));
#418 = DIRECTION('',(1.,0.));
#419 = ( GEOMETRIC_REPRESENTATION_CONTEXT(2) 
PARAMETRIC_REPRESENTATION_CONTEXT() REPRESENTATION_CONTEXT('2D SPACE',''
  ) );
#420 = PCURVE('',#421,#426);
#421 = CYLINDRICAL_SURFACE('',#422,12.5);
#422 = AXIS2_PLACEMENT_3D('',#423,#424,#425);
#423 = CARTESIAN_POINT('',(0.,0.,145.));
#424 = DIRECTION('',(0.,0.,1.));
#425 = DIRECTION('',(1.,0.,-0.));
#426 = DEFINITIONAL_REPRESENTATION('',(#427),#431);
#427 = LINE('',#428,#429);
#428 = CARTESIAN_POINT('',(0.,0.));
#429 = VECTOR('',#430,1.);
#430 = DIRECTION('',(1.,0.));
#431 = ( GEOMETRIC_REPRESENTATION_CONTEXT(2) 
PARAMETRIC_REPRESENTATION_CONTEXT() REPRESENTATION_CONTEXT('2D SPACE',''
  ) );
#432 = ADVANCED_FACE('',(#433),#250,.T.);
#433 = FACE_BOUND('',#434,.T.);
#434 = EDGE_LOOP('',(#435,#458,#486,#507));
#435 = ORIENTED_EDGE('',*,*,#436,.F.);
#436 = EDGE_CURVE('',#437,#236,#439,.T.);
#437 = VERTEX_POINT('',#438);
#438 = CARTESIAN_POINT('',(-4.,11.,125.));
#439 = SURFACE_CURVE('',#440,(#444,#451),.PCURVE_S1.);
#440 = LINE('',#441,#442);
#441 = CARTESIAN_POINT('',(-4.,11.,125.));
#442 = VECTOR('',#443,1.);
#443 = DIRECTION('',(-0.,1.,0.));
#444 = PCURVE('',#250,#445);
#445 = DEFINITIONAL_REPRESENTATION('',(#446),#450);
#446 = LINE('',#447,#448);
#447 = CARTESIAN_POINT('',(40.,0.));
#448 = VECTOR('',#449,1.);
#449 = DIRECTION('',(0.,-1.));
#450 = ( GEOMETRIC_REPRESENTATION_CONTEXT(2) 
PARAMETRIC_REPRESENTATION_CONTEXT() REPRESENTATION_CONTEXT('2D SPACE',''
  ) );
#451 = PCURVE('',#331,#452);
#452 = DEFINITIONAL_REPRESENTATION('',(#453),#457);
#453 = LINE('',#454,#455);
#454 = CARTESIAN_POINT('',(0.,0.));
#455 = VECTOR('',#456,1.);
#456 = DIRECTION('',(0.,1.));
#457 = ( GEOMETRIC_REPRESENTATION_CONTEXT(2) 
PARAMETRIC_REPRESENTATION_CONTEXT() REPRESENTATION_CONTEXT('2D SPACE',''
  ) );
#458 = ORIENTED_EDGE('',*,*,#459,.F.);
#459 = EDGE_CURVE('',#460,#437,#462,.T.);
#460 = VERTEX_POINT('',#461);
#461 = CARTESIAN_POINT('',(-4.,11.,85.));
#462 = SURFACE_CURVE('',#463,(#467,#474),.PCURVE_S1.);
#463 = LINE('',#464,#465);
#464 = CARTESIAN_POINT('',(-4.,11.,85.));
#465 = VECTOR('',#466,1.);
#466 = DIRECTION('',(0.,0.,1.));
#467 = PCURVE('',#250,#468);
#468 = DEFINITIONAL_REPRESENTATION('',(#469),#473);
#469 = LINE('',#470,#471);
#470 = CARTESIAN_POINT('',(0.,0.));
#471 = VECTOR('',#472,1.);
#472 = DIRECTION('',(1.,0.));
#473 = ( GEOMETRIC_REPRESENTATION_CONTEXT(2) 
PARAMETRIC_REPRESENTATION_CONTEXT() REPRESENTATION_CONTEXT('2D SPACE',''
  ) );
#474 = PCURVE('',#475,#480);
#475 = PLANE('',#476);
#476 = AXIS2_PLACEMENT_3D('',#477,#478,#479);
#477 = CARTESIAN_POINT('',(-4.,11.,85.));
#478 = DIRECTION('',(-0.,1.,0.));
#479 = DIRECTION('',(0.,0.,1.));
#480 = DEFINITIONAL_REPRESENTATION('',(#481),#485);
#481 = LINE('',#482,#483);
#482 = CARTESIAN_POINT('',(0.,0.));
#483 = VECTOR('',#484,1.);
#484 = DIRECTION('',(1.,0.));
#485 = ( GEOMETRIC_REPRESENTATION_CONTEXT(2) 
PARAMETRIC_REPRESENTATION_CONTEXT() REPRESENTATION_CONTEXT('2D SPACE',''
  ) );
#486 = ORIENTED_EDGE('',*,*,#487,.T.);
#487 = EDGE_CURVE('',#460,#234,#488,.T.);
#488 = SURFACE_CURVE('',#489,(#493,#500),.PCURVE_S1.);
#489 = LINE('',#490,#491);
#490 = CARTESIAN_POINT('',(-4.,11.,85.));
#491 = VECTOR('',#492,1.);
#492 = DIRECTION('',(-0.,1.,0.));
#493 = PCURVE('',#250,#494);
#494 = DEFINITIONAL_REPRESENTATION('',(#495),#499);
#495 = LINE('',#496,#497);
#496 = CARTESIAN_POINT('',(0.,0.));
#497 = VECTOR('',#498,1.);
#498 = DIRECTION('',(0.,-1.));
#499 = ( GEOMETRIC_REPRESENTATION_CONTEXT(2) 
PARAMETRIC_REPRESENTATION_CONTEXT() REPRESENTATION_CONTEXT('2D SPACE',''
  ) );
#500 = PCURVE('',#278,#501);
#501 = DEFINITIONAL_REPRESENTATION('',(#502),#506);
#502 = LINE('',#503,#504);
#503 = CARTESIAN_POINT('',(0.,0.));
#504 = VECTOR('',#505,1.);
#505 = DIRECTION('',(0.,1.));
#506 = ( GEOMETRIC_REPRESENTATION_CONTEXT(2) 
PARAMETRIC_REPRESENTATION_CONTEXT() REPRESENTATION_CONTEXT('2D SPACE',''
  ) );
#507 = ORIENTED_EDGE('',*,*,#233,.T.);
#508 = ADVANCED_FACE('',(#509),#331,.F.);
#509 = FACE_BOUND('',#510,.F.);
#510 = EDGE_LOOP('',(#511,#512,#535,#556));
#511 = ORIENTED_EDGE('',*,*,#436,.F.);
#512 = ORIENTED_EDGE('',*,*,#513,.T.);
#513 = EDGE_CURVE('',#437,#514,#516,.T.);
#514 = VERTEX_POINT('',#515);
#515 = CARTESIAN_POINT('',(4.,11.,125.));
#516 = SURFACE_CURVE('',#517,(#521,#528),.PCURVE_S1.);
#517 = LINE('',#518,#519);
#518 = CARTESIAN_POINT('',(-4.,11.,125.));
#519 = VECTOR('',#520,1.);
#520 = DIRECTION('',(1.,0.,-0.));
#521 = PCURVE('',#331,#522);
#522 = DEFINITIONAL_REPRESENTATION('',(#523),#527);
#523 = LINE('',#524,#525);
#524 = CARTESIAN_POINT('',(0.,0.));
#525 = VECTOR('',#526,1.);
#526 = DIRECTION('',(1.,0.));
#527 = ( GEOMETRIC_REPRESENTATION_CONTEXT(2) 
PARAMETRIC_REPRESENTATION_CONTEXT() REPRESENTATION_CONTEXT('2D SPACE',''
  ) );
#528 = PCURVE('',#475,#529);
#529 = DEFINITIONAL_REPRESENTATION('',(#530),#534);
#530 = LINE('',#531,#532);
#531 = CARTESIAN_POINT('',(40.,0.));
#532 = VECTOR('',#533,1.);
#533 = DIRECTION('',(0.,1.));
#534 = ( GEOMETRIC_REPRESENTATION_CONTEXT(2) 
PARAMETRIC_REPRESENTATION_CONTEXT() REPRESENTATION_CONTEXT('2D SPACE',''
  ) );
#535 = ORIENTED_EDGE('',*,*,#536,.T.);
#536 = EDGE_CURVE('',#514,#291,#537,.T.);
#537 = SURFACE_CURVE('',#538,(#542,#549),.PCURVE_S1.);
#538 = LINE('',#539,#540);
#539 = CARTESIAN_POINT('',(4.,11.,125.));
#540 = VECTOR('',#541,1.);
#541 = DIRECTION('',(-0.,1.,0.));
#542 = PCURVE('',#331,#543);
#543 = DEFINITIONAL_REPRESENTATION('',(#544),#548);
#544 = LINE('',#545,#546);
#545 = CARTESIAN_POINT('',(8.,0.));
#546 = VECTOR('',#547,1.);
#547 = DIRECTION('',(0.,1.));
#548 = ( GEOMETRIC_REPRESENTATION_CONTEXT(2) 
PARAMETRIC_REPRESENTATION_CONTEXT() REPRESENTATION_CONTEXT('2D SPACE',''
  ) );
#549 = PCURVE('',#305,#550);
#550 = DEFINITIONAL_REPRESENTATION('',(#551),#555);
#551 = LINE('',#552,#553);
#552 = CARTESIAN_POINT('',(40.,0.));
#553 = VECTOR('',#554,1.);
#554 = DIRECTION('',(0.,-1.));
#555 = ( GEOMETRIC_REPRESENTATION_CONTEXT(2) 
PARAMETRIC_REPRESENTATION_CONTEXT() REPRESENTATION_CONTEXT('2D SPACE',''
  ) );
#556 = ORIENTED_EDGE('',*,*,#316,.T.);
#557 = ADVANCED_FACE('',(#558),#305,.F.);
#558 = FACE_BOUND('',#559,.F.);
#559 = EDGE_LOOP('',(#560,#561,#584,#605));
#560 = ORIENTED_EDGE('',*,*,#536,.F.);
#561 = ORIENTED_EDGE('',*,*,#562,.F.);
#562 = EDGE_CURVE('',#563,#514,#565,.T.);
#563 = VERTEX_POINT('',#564);
#564 = CARTESIAN_POINT('',(4.,11.,85.));
#565 = SURFACE_CURVE('',#566,(#570,#577),.PCURVE_S1.);
#566 = LINE('',#567,#568);
#567 = CARTESIAN_POINT('',(4.,11.,85.));
#568 = VECTOR('',#569,1.);
#569 = DIRECTION('',(0.,0.,1.));
#570 = PCURVE('',#305,#571);
#571 = DEFINITIONAL_REPRESENTATION('',(#572),#576);
#572 = LINE('',#573,#574);
#573 = CARTESIAN_POINT('',(0.,0.));
#574 = VECTOR('',#575,1.);
#575 = DIRECTION('',(1.,0.));
#576 = ( GEOMETRIC_REPRESENTATION_CONTEXT(2) 
PARAMETRIC_REPRESENTATION_CONTEXT() REPRESENTATION_CONTEXT('2D SPACE',''
  ) );
#577 = PCURVE('',#475,#578);
#578 = DEFINITIONAL_REPRESENTATION('',(#579),#583);
#579 = LINE('',#580,#581);
#580 = CARTESIAN_POINT('',(0.,8.));
#581 = VECTOR('',#582,1.);
#582 = DIRECTION('',(1.,0.));
#583 = ( GEOMETRIC_REPRESENTATION_CONTEXT(2) 
PARAMETRIC_REPRESENTATION_CONTEXT() REPRESENTATION_CONTEXT('2D SPACE',''
  ) );
#584 = ORIENTED_EDGE('',*,*,#585,.T.);
#585 = EDGE_CURVE('',#563,#262,#586,.T.);
#586 = SURFACE_CURVE('',#587,(#591,#598),.PCURVE_S1.);
#587 = LINE('',#588,#589);
#588 = CARTESIAN_POINT('',(4.,11.,85.));
#589 = VECTOR('',#590,1.);
#590 = DIRECTION('',(-0.,1.,0.));
#591 = PCURVE('',#305,#592);
#592 = DEFINITIONAL_REPRESENTATION('',(#593),#597);
#593 = LINE('',#594,#595);
#594 = CARTESIAN_POINT('',(0.,0.));
#595 = VECTOR('',#596,1.);
#596 = DIRECTION('',(0.,-1.));
#597 = ( GEOMETRIC_REPRESENTATION_CONTEXT(2) 
PARAMETRIC_REPRESENTATION_CONTEXT() REPRESENTATION_CONTEXT('2D SPACE',''
  ) );
#598 = PCURVE('',#278,#599);
#599 = DEFINITIONAL_REPRESENTATION('',(#600),#604);
#600 = LINE('',#601,#602);
#601 = CARTESIAN_POINT('',(8.,0.));
#602 = VECTOR('',#603,1.);
#603 = DIRECTION('',(0.,1.));
#604 = ( GEOMETRIC_REPRESENTATION_CONTEXT(2) 
PARAMETRIC_REPRESENTATION_CONTEXT() REPRESENTATION_CONTEXT('2D SPACE',''
  ) );
#605 = ORIENTED_EDGE('',*,*,#290,.T.);
#606 = ADVANCED_FACE('',(#607),#278,.T.);
#607 = FACE_BOUND('',#608,.T.);
#608 = EDGE_LOOP('',(#609,#610,#631,#632));
#609 = ORIENTED_EDGE('',*,*,#487,.F.);
#610 = ORIENTED_EDGE('',*,*,#611,.T.);
#611 = EDGE_CURVE('',#460,#563,#612,.T.);
#612 = SURFACE_CURVE('',#613,(#617,#624),.PCURVE_S1.);
#613 = LINE('',#614,#615);
#614 = CARTESIAN_POINT('',(-4.,11.,85.));
#615 = VECTOR('',#616,1.);
#616 = DIRECTION('',(1.,0.,-0.));
#617 = PCURVE('',#278,#618);
#618 = DEFINITIONAL_REPRESENTATION('',(#619),#623);
#619 = LINE('',#620,#621);
#620 = CARTESIAN_POINT('',(0.,0.));
#621 = VECTOR('',#622,1.);
#622 = DIRECTION('',(1.,0.));
#623 = ( GEOMETRIC_REPRESENTATION_CONTEXT(2) 
PARAMETRIC_REPRESENTATION_CONTEXT() REPRESENTATION_CONTEXT('2D SPACE',''
  ) );
#624 = PCURVE('',#475,#625);
#625 = DEFINITIONAL_REPRESENTATION('',(#626),#630);
#626 = LINE('',#627,#628);
#627 = CARTESIAN_POINT('',(0.,0.));
#628 = VECTOR('',#629,1.);
#629 = DIRECTION('',(0.,1.));
#630 = ( GEOMETRIC_REPRESENTATION_CONTEXT(2) 
PARAMETRIC_REPRESENTATION_CONTEXT() REPRESENTATION_CONTEXT('2D SPACE',''
  ) );
#631 = ORIENTED_EDGE('',*,*,#585,.T.);
#632 = ORIENTED_EDGE('',*,*,#261,.T.);
#633 = ADVANCED_FACE('',(#634),#385,.F.);
#634 = FACE_BOUND('',#635,.T.);
#635 = EDGE_LOOP('',(#636));
#636 = ORIENTED_EDGE('',*,*,#370,.F.);
#637 = ADVANCED_FACE('',(#638),#421,.T.);
#638 = FACE_BOUND('',#639,.T.);
#639 = EDGE_LOOP('',(#640,#669,#690,#691));
#640 = ORIENTED_EDGE('',*,*,#641,.F.);
#641 = EDGE_CURVE('',#642,#642,#644,.T.);
#642 = VERTEX_POINT('',#643);
#643 = CARTESIAN_POINT('',(12.5,-3.061616997868E-15,170.));
#644 = SURFACE_CURVE('',#645,(#650,#657),.PCURVE_S1.);
#645 = CIRCLE('',#646,12.5);
#646 = AXIS2_PLACEMENT_3D('',#647,#648,#649);
#647 = CARTESIAN_POINT('',(0.,0.,170.));
#648 = DIRECTION('',(0.,0.,1.));
#649 = DIRECTION('',(1.,0.,-0.));
#650 = PCURVE('',#421,#651);
#651 = DEFINITIONAL_REPRESENTATION('',(#652),#656);
#652 = LINE('',#653,#654);
#653 = CARTESIAN_POINT('',(0.,25.));
#654 = VECTOR('',#655,1.);
#655 = DIRECTION('',(1.,0.));
#656 = ( GEOMETRIC_REPRESENTATION_CONTEXT(2) 
PARAMETRIC_REPRESENTATION_CONTEXT() REPRESENTATION_CONTEXT('2D SPACE',''
  ) );
#657 = PCURVE('',#658,#663);
#658 = PLANE('',#659);
#659 = AXIS2_PLACEMENT_3D('',#660,#661,#662);
#660 = CARTESIAN_POINT('',(0.,0.,170.));
#661 = DIRECTION('',(0.,0.,1.));
#662 = DIRECTION('',(1.,0.,-0.));
#663 = DEFINITIONAL_REPRESENTATION('',(#664),#668);
#664 = CIRCLE('',#665,12.5);
#665 = AXIS2_PLACEMENT_2D('',#666,#667);
#666 = CARTESIAN_POINT('',(0.,0.));
#667 = DIRECTION('',(1.,0.));
#668 = ( GEOMETRIC_REPRESENTATION_CONTEXT(2) 
PARAMETRIC_REPRESENTATION_CONTEXT() REPRESENTATION_CONTEXT('2D SPACE',''
  ) );
#669 = ORIENTED_EDGE('',*,*,#670,.F.);
#670 = EDGE_CURVE('',#405,#642,#671,.T.);
#671 = SEAM_CURVE('',#672,(#676,#683),.PCURVE_S1.);
#672 = LINE('',#673,#674);
#673 = CARTESIAN_POINT('',(12.5,-3.061616997868E-15,145.));
#674 = VECTOR('',#675,1.);
#675 = DIRECTION('',(0.,0.,1.));
#676 = PCURVE('',#421,#677);
#677 = DEFINITIONAL_REPRESENTATION('',(#678),#682);
#678 = LINE('',#679,#680);
#679 = CARTESIAN_POINT('',(6.28318530718,-0.));
#680 = VECTOR('',#681,1.);
#681 = DIRECTION('',(0.,1.));
#682 = ( GEOMETRIC_REPRESENTATION_CONTEXT(2) 
PARAMETRIC_REPRESENTATION_CONTEXT() REPRESENTATION_CONTEXT('2D SPACE',''
  ) );
#683 = PCURVE('',#421,#684);
#684 = DEFINITIONAL_REPRESENTATION('',(#685),#689);
#685 = LINE('',#686,#687);
#686 = CARTESIAN_POINT('',(0.,-0.));
#687 = VECTOR('',#688,1.);
#688 = DIRECTION('',(0.,1.));
#689 = ( GEOMETRIC_REPRESENTATION_CONTEXT(2) 
PARAMETRIC_REPRESENTATION_CONTEXT() REPRESENTATION_CONTEXT('2D SPACE',''
  ) );
#690 = ORIENTED_EDGE('',*,*,#404,.T.);
#691 = ORIENTED_EDGE('',*,*,#670,.T.);
#692 = ADVANCED_FACE('',(#693),#475,.T.);
#693 = FACE_BOUND('',#694,.T.);
#694 = EDGE_LOOP('',(#695,#696,#697,#698));
#695 = ORIENTED_EDGE('',*,*,#611,.F.);
#696 = ORIENTED_EDGE('',*,*,#459,.T.);
#697 = ORIENTED_EDGE('',*,*,#513,.T.);
#698 = ORIENTED_EDGE('',*,*,#562,.F.);
#699 = ADVANCED_FACE('',(#700,#703),#658,.T.);
#700 = FACE_BOUND('',#701,.T.);
#701 = EDGE_LOOP('',(#702));
#702 = ORIENTED_EDGE('',*,*,#641,.T.);
#703 = FACE_BOUND('',#704,.T.);
#704 = EDGE_LOOP('',(#705));
#705 = ORIENTED_EDGE('',*,*,#706,.F.);
#706 = EDGE_CURVE('',#707,#707,#709,.T.);
#707 = VERTEX_POINT('',#708);
#708 = CARTESIAN_POINT('',(10.,-2.449293598295E-15,170.));
#709 = SURFACE_CURVE('',#710,(#715,#722),.PCURVE_S1.);
#710 = CIRCLE('',#711,10.);
#711 = AXIS2_PLACEMENT_3D('',#712,#713,#714);
#712 = CARTESIAN_POINT('',(0.,0.,170.));
#713 = DIRECTION('',(0.,0.,1.));
#714 = DIRECTION('',(1.,0.,-0.));
#715 = PCURVE('',#658,#716);
#716 = DEFINITIONAL_REPRESENTATION('',(#717),#721);
#717 = CIRCLE('',#718,10.);
#718 = AXIS2_PLACEMENT_2D('',#719,#720);
#719 = CARTESIAN_POINT('',(0.,0.));
#720 = DIRECTION('',(1.,0.));
#721 = ( GEOMETRIC_REPRESENTATION_CONTEXT(2) 
PARAMETRIC_REPRESENTATION_CONTEXT() REPRESENTATION_CONTEXT('2D SPACE',''
  ) );
#722 = PCURVE('',#723,#728);
#723 = CYLINDRICAL_SURFACE('',#724,10.);
#724 = AXIS2_PLACEMENT_3D('',#725,#726,#727);
#725 = CARTESIAN_POINT('',(0.,0.,170.));
#726 = DIRECTION('',(0.,0.,1.));
#727 = DIRECTION('',(1.,0.,-0.));
#728 = DEFINITIONAL_REPRESENTATION('',(#729),#733);
#729 = LINE('',#730,#731);
#730 = CARTESIAN_POINT('',(0.,0.));
#731 = VECTOR('',#732,1.);
#732 = DIRECTION('',(1.,0.));
#733 = ( GEOMETRIC_REPRESENTATION_CONTEXT(2) 
PARAMETRIC_REPRESENTATION_CONTEXT() REPRESENTATION_CONTEXT('2D SPACE',''
  ) );
#734 = ADVANCED_FACE('',(#735,#1024),#723,.T.);
#735 = FACE_BOUND('',#736,.T.);
#736 = EDGE_LOOP('',(#737,#762,#789,#790,#899,#920,#921,#922));
#737 = ORIENTED_EDGE('',*,*,#738,.T.);
#738 = EDGE_CURVE('',#739,#741,#743,.T.);
#739 = VERTEX_POINT('',#740);
#740 = CARTESIAN_POINT('',(10.,-8.572527594031E-16,183.));
#741 = VERTEX_POINT('',#742);
#742 = CARTESIAN_POINT('',(10.,-2.449293598295E-15,190.));
#743 = SEAM_CURVE('',#744,(#748,#755),.PCURVE_S1.);
#744 = LINE('',#745,#746);
#745 = CARTESIAN_POINT('',(10.,-2.449293598295E-15,170.));
#746 = VECTOR('',#747,1.);
#747 = DIRECTION('',(0.,0.,1.));
#748 = PCURVE('',#723,#749);
#749 = DEFINITIONAL_REPRESENTATION('',(#750),#754);
#750 = LINE('',#751,#752);
#751 = CARTESIAN_POINT('',(6.28318530718,-0.));
#752 = VECTOR('',#753,1.);
#753 = DIRECTION('',(0.,1.));
#754 = ( GEOMETRIC_REPRESENTATION_CONTEXT(2) 
PARAMETRIC_REPRESENTATION_CONTEXT() REPRESENTATION_CONTEXT('2D SPACE',''
  ) );
#755 = PCURVE('',#723,#756);
#756 = DEFINITIONAL_REPRESENTATION('',(#757),#761);
#757 = LINE('',#758,#759);
#758 = CARTESIAN_POINT('',(0.,-0.));
#759 = VECTOR('',#760,1.);
#760 = DIRECTION('',(0.,1.));
#761 = ( GEOMETRIC_REPRESENTATION_CONTEXT(2) 
PARAMETRIC_REPRESENTATION_CONTEXT() REPRESENTATION_CONTEXT('2D SPACE',''
  ) );
#762 = ORIENTED_EDGE('',*,*,#763,.F.);
#763 = EDGE_CURVE('',#741,#741,#764,.T.);
#764 = SURFACE_CURVE('',#765,(#770,#777),.PCURVE_S1.);
#765 = CIRCLE('',#766,10.);
#766 = AXIS2_PLACEMENT_3D('',#767,#768,#769);
#767 = CARTESIAN_POINT('',(0.,0.,190.));
#768 = DIRECTION('',(0.,0.,1.));
#769 = DIRECTION('',(1.,0.,-0.));
#770 = PCURVE('',#723,#771);
#771 = DEFINITIONAL_REPRESENTATION('',(#772),#776);
#772 = LINE('',#773,#774);
#773 = CARTESIAN_POINT('',(0.,20.));
#774 = VECTOR('',#775,1.);
#775 = DIRECTION('',(1.,0.));
#776 = ( GEOMETRIC_REPRESENTATION_CONTEXT(2) 
PARAMETRIC_REPRESENTATION_CONTEXT() REPRESENTATION_CONTEXT('2D SPACE',''
  ) );
#777 = PCURVE('',#778,#783);
#778 = PLANE('',#779);
#779 = AXIS2_PLACEMENT_3D('',#780,#781,#782);
#780 = CARTESIAN_POINT('',(0.,0.,190.));
#781 = DIRECTION('',(0.,0.,1.));
#782 = DIRECTION('',(1.,0.,-0.));
#783 = DEFINITIONAL_REPRESENTATION('',(#784),#788);
#784 = CIRCLE('',#785,10.);
#785 = AXIS2_PLACEMENT_2D('',#786,#787);
#786 = CARTESIAN_POINT('',(0.,0.));
#787 = DIRECTION('',(1.,0.));
#788 = ( GEOMETRIC_REPRESENTATION_CONTEXT(2) 
PARAMETRIC_REPRESENTATION_CONTEXT() REPRESENTATION_CONTEXT('2D SPACE',''
  ) );
#789 = ORIENTED_EDGE('',*,*,#738,.F.);
#790 = ORIENTED_EDGE('',*,*,#791,.F.);
#791 = EDGE_CURVE('',#792,#739,#794,.T.);
#792 = VERTEX_POINT('',#793);
#793 = CARTESIAN_POINT('',(10.,-2.449293598295E-15,177.));
#794 = SURFACE_CURVE('',#795,(#826,#860),.PCURVE_S1.);
#795 = B_SPLINE_CURVE_WITH_KNOTS('',8,(#796,#797,#798,#799,#800,#801,
    #802,#803,#804,#805,#806,#807,#808,#809,#810,#811,#812,#813,#814,
    #815,#816,#817,#818,#819,#820,#821,#822,#823,#824,#825),
  .UNSPECIFIED.,.F.,.F.,(9,7,7,7,9),(0.,0.216164555987,0.501297050429,
    0.725562143786,1.),.UNSPECIFIED.);
#796 = CARTESIAN_POINT('',(10.,1.148570609678E-15,177.));
#797 = CARTESIAN_POINT('',(10.,0.312050401822,177.));
#798 = CARTESIAN_POINT('',(9.98887097216,0.616955980581,177.03709497947)
  );
#799 = CARTESIAN_POINT('',(9.967507192217,0.909728179468,177.10831480011
    ));
#800 = CARTESIAN_POINT('',(9.937692349784,1.185994667508,177.21002307338
    ));
#801 = CARTESIAN_POINT('',(9.901859619498,1.44205640488,177.33788712685)
  );
#802 = CARTESIAN_POINT('',(9.862727422858,1.675013628769,177.48684001661
    ));
#803 = CARTESIAN_POINT('',(9.822891330553,1.882937447045,177.65104550054
    ));
#804 = CARTESIAN_POINT('',(9.733749775101,2.305297933345,178.05185063642
    ));
#805 = CARTESIAN_POINT('',(9.683979430144,2.507750895749,178.30157530201
    ));
#806 = CARTESIAN_POINT('',(9.638579099181,2.673814348979,178.56680436238
    ));
#807 = CARTESIAN_POINT('',(9.600033451518,2.804997447481,178.84307877986
    ));
#808 = CARTESIAN_POINT('',(9.570030689332,2.902576356784,179.12701951361
    ));
#809 = CARTESIAN_POINT('',(9.549631151832,2.967441173491,179.41595253645
    ));
#810 = CARTESIAN_POINT('',(9.539392014169,3.,179.70765360092));
#811 = CARTESIAN_POINT('',(9.539392014169,3.,180.22993904152));
#812 = CARTESIAN_POINT('',(9.545726387136,2.979858671934,180.45967925454
    ));
#813 = CARTESIAN_POINT('',(9.558375594981,2.939634898386,180.68809034756
    ));
#814 = CARTESIAN_POINT('',(9.57712280459,2.879191728063,180.91399905363)
  );
#815 = CARTESIAN_POINT('',(9.601544580269,2.798219836068,181.13612415182
    ));
#816 = CARTESIAN_POINT('',(9.630989887314,2.69626474633,181.35298841816)
  );
#817 = CARTESIAN_POINT('',(9.664547406715,2.572757816189,181.56280750615
    ));
#818 = CARTESIAN_POINT('',(9.745610377783,2.248746502909,182.00877081978
    ));
#819 = CARTESIAN_POINT('',(9.795849048768,2.032033985863,182.24740993606
    ));
#820 = CARTESIAN_POINT('',(9.849080454572,1.775746320057,182.46911547985
    ));
#821 = CARTESIAN_POINT('',(9.901203554958,1.480883839588,182.66421770652
    ));
#822 = CARTESIAN_POINT('',(9.947062495619,1.150362644056,182.82353941294
    ));
#823 = CARTESIAN_POINT('',(9.981489037931,0.788791310173,182.93829722887
    ));
#824 = CARTESIAN_POINT('',(10.,0.402455410775,183.));
#825 = CARTESIAN_POINT('',(10.,3.673940397442E-16,183.));
#826 = PCURVE('',#723,#827);
#827 = DEFINITIONAL_REPRESENTATION('',(#828),#859);
#828 = B_SPLINE_CURVE_WITH_KNOTS('',8,(#829,#830,#831,#832,#833,#834,
    #835,#836,#837,#838,#839,#840,#841,#842,#843,#844,#845,#846,#847,
    #848,#849,#850,#851,#852,#853,#854,#855,#856,#857,#858),
  .UNSPECIFIED.,.F.,.F.,(9,7,7,7,9),(0.,0.216164555987,0.501297050429,
    0.725562143786,1.),.UNSPECIFIED.);
#829 = CARTESIAN_POINT('',(0.,7.));
#830 = CARTESIAN_POINT('',(3.120504018218E-02,7.));
#831 = CARTESIAN_POINT('',(6.169562902822E-02,7.037094979474));
#832 = CARTESIAN_POINT('',(9.101902293343E-02,7.108314800118));
#833 = CARTESIAN_POINT('',(0.118775899935,7.210023073387));
#834 = CARTESIAN_POINT('',(0.144610721267,7.33788712685));
#835 = CARTESIAN_POINT('',(0.168222347793,7.486840016615));
#836 = CARTESIAN_POINT('',(0.189389170631,7.651045500541));
#837 = CARTESIAN_POINT('',(0.232555661952,8.051850636421));
#838 = CARTESIAN_POINT('',(0.253392367196,8.301575302012));
#839 = CARTESIAN_POINT('',(0.270600862493,8.566804362382));
#840 = CARTESIAN_POINT('',(0.284271383741,8.843078779867));
#841 = CARTESIAN_POINT('',(0.294479855894,9.127019513615));
#842 = CARTESIAN_POINT('',(0.301279569454,9.41595253645));
#843 = CARTESIAN_POINT('',(0.304692654015,9.707653600927));
#844 = CARTESIAN_POINT('',(0.304692654015,10.229939041529));
#845 = CARTESIAN_POINT('',(0.302581250587,10.459679254548));
#846 = CARTESIAN_POINT('',(0.298364699973,10.688090347562));
#847 = CARTESIAN_POINT('',(0.292036361659,10.913999053637));
#848 = CARTESIAN_POINT('',(0.283579449718,11.136124151829));
#849 = CARTESIAN_POINT('',(0.272969010799,11.352988418164));
#850 = CARTESIAN_POINT('',(0.260173128765,11.562807506159));
#851 = CARTESIAN_POINT('',(0.226773347866,12.008770819786));
#852 = CARTESIAN_POINT('',(0.204530752508,12.24740993607));
#853 = CARTESIAN_POINT('',(0.178366833295,12.469115479854));
#854 = CARTESIAN_POINT('',(0.148452160789,12.664217706532));
#855 = CARTESIAN_POINT('',(0.115135636431,12.823539412946));
#856 = CARTESIAN_POINT('',(7.887912355197E-02,12.938297228873));
#857 = CARTESIAN_POINT('',(4.02455410775E-02,13.));
#858 = CARTESIAN_POINT('',(0.,13.));
#859 = ( GEOMETRIC_REPRESENTATION_CONTEXT(2) 
PARAMETRIC_REPRESENTATION_CONTEXT() REPRESENTATION_CONTEXT('2D SPACE',''
  ) );
#860 = PCURVE('',#861,#866);
#861 = CYLINDRICAL_SURFACE('',#862,3.);
#862 = AXIS2_PLACEMENT_3D('',#863,#864,#865);
#863 = CARTESIAN_POINT('',(-11.,0.,180.));
#864 = DIRECTION('',(1.,0.,0.));
#865 = DIRECTION('',(-0.,0.,1.));
#866 = DEFINITIONAL_REPRESENTATION('',(#867),#898);
#867 = B_SPLINE_CURVE_WITH_KNOTS('',8,(#868,#869,#870,#871,#872,#873,
    #874,#875,#876,#877,#878,#879,#880,#881,#882,#883,#884,#885,#886,
    #887,#888,#889,#890,#891,#892,#893,#894,#895,#896,#897),
  .UNSPECIFIED.,.F.,.F.,(9,7,7,7,9),(0.,0.216164555987,0.501297050429,
    0.725562143786,1.),.UNSPECIFIED.);
#868 = CARTESIAN_POINT('',(3.14159265359,21.));
#869 = CARTESIAN_POINT('',(3.245609454197,21.));
#870 = CARTESIAN_POINT('',(3.34724457476,20.98887097216));
#871 = CARTESIAN_POINT('',(3.446550436421,20.967507192217));
#872 = CARTESIAN_POINT('',(3.543454115749,20.937692349784));
#873 = CARTESIAN_POINT('',(3.637768868633,20.901859619498));
#874 = CARTESIAN_POINT('',(3.729166428003,20.862727422858));
#875 = CARTESIAN_POINT('',(3.817117874376,20.822891330553));
#876 = CARTESIAN_POINT('',(4.011206381488,20.733749775101));
#877 = CARTESIAN_POINT('',(4.117457850059,20.683979430144));
#878 = CARTESIAN_POINT('',(4.220516229729,20.638579099181));
#879 = CARTESIAN_POINT('',(4.321134603433,20.600033451518));
#880 = CARTESIAN_POINT('',(4.419984790257,20.570030689332));
#881 = CARTESIAN_POINT('',(4.517706704148,20.549631151832));
#882 = CARTESIAN_POINT('',(4.614940180694,20.539392014169));
#883 = CARTESIAN_POINT('',(4.789035327561,20.539392014169));
#884 = CARTESIAN_POINT('',(4.86561594072,20.545726387136));
#885 = CARTESIAN_POINT('',(4.94243773179,20.558375594981));
#886 = CARTESIAN_POINT('',(5.019794814115,20.57712280459));
#887 = CARTESIAN_POINT('',(5.097979336679,20.601544580269));
#888 = CARTESIAN_POINT('',(5.177295547696,20.630989887314));
#889 = CARTESIAN_POINT('',(5.258077087551,20.664547406715));
#890 = CARTESIAN_POINT('',(5.441824077922,20.745610377783));
#891 = CARTESIAN_POINT('',(5.548638786527,20.795849048768));
#892 = CARTESIAN_POINT('',(5.660214940143,20.849080454572));
#893 = CARTESIAN_POINT('',(5.776075960552,20.901203554958));
#894 = CARTESIAN_POINT('',(5.896053297432,20.947062495619));
#895 = CARTESIAN_POINT('',(6.020254659883,20.981489037931));
#896 = CARTESIAN_POINT('',(6.149033503588,21.));
#897 = CARTESIAN_POINT('',(6.28318530718,21.));
#898 = ( GEOMETRIC_REPRESENTATION_CONTEXT(2) 
PARAMETRIC_REPRESENTATION_CONTEXT() REPRESENTATION_CONTEXT('2D SPACE',''
  ) );
#899 = ORIENTED_EDGE('',*,*,#900,.F.);
#900 = EDGE_CURVE('',#707,#792,#901,.T.);
#901 = SEAM_CURVE('',#902,(#906,#913),.PCURVE_S1.);
#902 = LINE('',#903,#904);
#903 = CARTESIAN_POINT('',(10.,-2.449293598295E-15,170.));
#904 = VECTOR('',#905,1.);
#905 = DIRECTION('',(0.,0.,1.));
#906 = PCURVE('',#723,#907);
#907 = DEFINITIONAL_REPRESENTATION('',(#908),#912);
#908 = LINE('',#909,#910);
#909 = CARTESIAN_POINT('',(6.28318530718,-0.));
#910 = VECTOR('',#911,1.);
#911 = DIRECTION('',(0.,1.));
#912 = ( GEOMETRIC_REPRESENTATION_CONTEXT(2) 
PARAMETRIC_REPRESENTATION_CONTEXT() REPRESENTATION_CONTEXT('2D SPACE',''
  ) );
#913 = PCURVE('',#723,#914);
#914 = DEFINITIONAL_REPRESENTATION('',(#915),#919);
#915 = LINE('',#916,#917);
#916 = CARTESIAN_POINT('',(0.,-0.));
#917 = VECTOR('',#918,1.);
#918 = DIRECTION('',(0.,1.));
#919 = ( GEOMETRIC_REPRESENTATION_CONTEXT(2) 
PARAMETRIC_REPRESENTATION_CONTEXT() REPRESENTATION_CONTEXT('2D SPACE',''
  ) );
#920 = ORIENTED_EDGE('',*,*,#706,.T.);
#921 = ORIENTED_EDGE('',*,*,#900,.T.);
#922 = ORIENTED_EDGE('',*,*,#923,.F.);
#923 = EDGE_CURVE('',#739,#792,#924,.T.);
#924 = SURFACE_CURVE('',#925,(#956,#990),.PCURVE_S1.);
#925 = B_SPLINE_CURVE_WITH_KNOTS('',8,(#926,#927,#928,#929,#930,#931,
    #932,#933,#934,#935,#936,#937,#938,#939,#940,#941,#942,#943,#944,
    #945,#946,#947,#948,#949,#950,#951,#952,#953,#954,#955),
  .UNSPECIFIED.,.F.,.F.,(9,7,7,7,9),(0.,0.216250876536,0.377852769394,
    0.672114815156,1.),.UNSPECIFIED.);
#926 = CARTESIAN_POINT('',(10.,-8.881784197001E-16,183.));
#927 = CARTESIAN_POINT('',(10.,-0.312050401822,183.));
#928 = CARTESIAN_POINT('',(9.98887097216,-0.616955980581,182.96290502052
    ));
#929 = CARTESIAN_POINT('',(9.967507192217,-0.909728179469,
    182.89168519988));
#930 = CARTESIAN_POINT('',(9.937692349784,-1.185994667508,
    182.78997692661));
#931 = CARTESIAN_POINT('',(9.901859619498,-1.44205640488,182.66211287315
    ));
#932 = CARTESIAN_POINT('',(9.862727422858,-1.675013628769,
    182.51315998338));
#933 = CARTESIAN_POINT('',(9.822891330553,-1.882937447045,
    182.34895449945));
#934 = CARTESIAN_POINT('',(9.755727682535,-2.201164685674,
    182.04696812583));
#935 = CARTESIAN_POINT('',(9.727317547585,-2.32506600592,181.91090185394
    ));
#936 = CARTESIAN_POINT('',(9.699845187884,-2.437051146424,
    181.76906461973));
#937 = CARTESIAN_POINT('',(9.673831169375,-2.537416277583,
    181.62240408259));
#938 = CARTESIAN_POINT('',(9.649704478467,-2.626449653128,
    181.47170576797));
#939 = CARTESIAN_POINT('',(9.627814056283,-2.704412218714,
    181.31762259863));
#940 = CARTESIAN_POINT('',(9.608440974975,-2.771519457583,
    181.16070342833));
#941 = CARTESIAN_POINT('',(9.561530081844,-2.930632770908,
    180.71138129256));
#942 = CARTESIAN_POINT('',(9.54037165662,-2.997765315489,180.41376229024
    ));
#943 = CARTESIAN_POINT('',(9.529714310358,-3.030201543006,
    180.11189192345));
#944 = CARTESIAN_POINT('',(9.530255921789,-3.028365391301,
    179.80858689441));
#945 = CARTESIAN_POINT('',(9.542064914624,-2.99227780244,179.50653698411
    ));
#946 = CARTESIAN_POINT('',(9.564585461049,-2.921577800858,
    179.20853314452));
#947 = CARTESIAN_POINT('',(9.596597000702,-2.815527897797,178.917716837)
  );
#948 = CARTESIAN_POINT('',(9.680176300582,-2.51422787913,178.32638225505
    ));
#949 = CARTESIAN_POINT('',(9.734851341684,-2.305520186634,
    178.01942778803));
#950 = CARTESIAN_POINT('',(9.797631205436,-2.043396047774,
    177.72927311401));
#951 = CARTESIAN_POINT('',(9.863473406805,-1.727073795494,
    177.46859689935));
#952 = CARTESIAN_POINT('',(9.924817750443,-1.358343714369,
    177.25063194796));
#953 = CARTESIAN_POINT('',(9.973173818812,-0.941665602914,
    177.08941598167));
#954 = CARTESIAN_POINT('',(10.,-0.48448094698,177.));
#955 = CARTESIAN_POINT('',(10.,0.,177.));
#956 = PCURVE('',#723,#957);
#957 = DEFINITIONAL_REPRESENTATION('',(#958),#989);
#958 = B_SPLINE_CURVE_WITH_KNOTS('',8,(#959,#960,#961,#962,#963,#964,
    #965,#966,#967,#968,#969,#970,#971,#972,#973,#974,#975,#976,#977,
    #978,#979,#980,#981,#982,#983,#984,#985,#986,#987,#988),
  .UNSPECIFIED.,.F.,.F.,(9,7,7,7,9),(0.,0.216250876536,0.377852769394,
    0.672114815156,1.),.UNSPECIFIED.);
#959 = CARTESIAN_POINT('',(6.28318530718,13.));
#960 = CARTESIAN_POINT('',(6.251980266997,13.));
#961 = CARTESIAN_POINT('',(6.221489678151,12.962905020526));
#962 = CARTESIAN_POINT('',(6.192166284246,12.891685199881));
#963 = CARTESIAN_POINT('',(6.164409407245,12.789976926613));
#964 = CARTESIAN_POINT('',(6.138574585913,12.66211287315));
#965 = CARTESIAN_POINT('',(6.114962959386,12.513159983385));
#966 = CARTESIAN_POINT('',(6.093796136549,12.348954499459));
#967 = CARTESIAN_POINT('',(6.061272371235,12.046968125837));
#968 = CARTESIAN_POINT('',(6.048562615725,11.910901853944));
#969 = CARTESIAN_POINT('',(6.037034065449,11.769064619732));
#970 = CARTESIAN_POINT('',(6.026667347157,11.622404082599));
#971 = CARTESIAN_POINT('',(6.01744372742,11.471705767975));
#972 = CARTESIAN_POINT('',(6.009346355816,11.317622598637));
#973 = CARTESIAN_POINT('',(6.002361698135,11.160703428332));
#974 = CARTESIAN_POINT('',(5.98577324481,10.711381292563));
#975 = CARTESIAN_POINT('',(5.978735664061,10.413762290244));
#976 = CARTESIAN_POINT('',(5.975321230271,10.111891923456));
#977 = CARTESIAN_POINT('',(5.975512363269,9.80858689441));
#978 = CARTESIAN_POINT('',(5.979309931275,9.506536984117));
#979 = CARTESIAN_POINT('',(5.986729541975,9.208533144521));
#980 = CARTESIAN_POINT('',(5.997804330505,8.917716837003));
#981 = CARTESIAN_POINT('',(6.029072077565,8.326382255059));
#982 = CARTESIAN_POINT('',(6.050644851542,8.019427788033));
#983 = CARTESIAN_POINT('',(6.077588632245,7.729273114017));
#984 = CARTESIAN_POINT('',(6.109867397329,7.468596899356));
#985 = CARTESIAN_POINT('',(6.147177464896,7.250631947966));
#986 = CARTESIAN_POINT('',(6.189018779669,7.089415981679));
#987 = CARTESIAN_POINT('',(6.234737212482,7.));
#988 = CARTESIAN_POINT('',(6.28318530718,7.));
#989 = ( GEOMETRIC_REPRESENTATION_CONTEXT(2) 
PARAMETRIC_REPRESENTATION_CONTEXT() REPRESENTATION_CONTEXT('2D SPACE',''
  ) );
#990 = PCURVE('',#861,#991);
#991 = DEFINITIONAL_REPRESENTATION('',(#992),#1023);
#992 = B_SPLINE_CURVE_WITH_KNOTS('',8,(#993,#994,#995,#996,#997,#998,
    #999,#1000,#1001,#1002,#1003,#1004,#1005,#1006,#1007,#1008,#1009,
    #1010,#1011,#1012,#1013,#1014,#1015,#1016,#1017,#1018,#1019,#1020,
    #1021,#1022),.UNSPECIFIED.,.F.,.F.,(9,7,7,7,9),(0.,0.216250876536,
    0.377852769394,0.672114815156,1.),.UNSPECIFIED.);
#993 = CARTESIAN_POINT('',(0.,21.));
#994 = CARTESIAN_POINT('',(0.104016800607,21.));
#995 = CARTESIAN_POINT('',(0.20565192117,20.98887097216));
#996 = CARTESIAN_POINT('',(0.304957782832,20.967507192217));
#997 = CARTESIAN_POINT('',(0.40186146216,20.937692349784));
#998 = CARTESIAN_POINT('',(0.496176215043,20.901859619498));
#999 = CARTESIAN_POINT('',(0.587573774413,20.862727422858));
#1000 = CARTESIAN_POINT('',(0.675525220787,20.822891330553));
#1001 = CARTESIAN_POINT('',(0.8217610825,20.755727682535));
#1002 = CARTESIAN_POINT('',(0.882940074502,20.727317547585));
#1003 = CARTESIAN_POINT('',(0.942934402313,20.699845187884));
#1004 = CARTESIAN_POINT('',(1.001903665563,20.673831169375));
#1005 = CARTESIAN_POINT('',(1.059996976875,20.649704478467));
#1006 = CARTESIAN_POINT('',(1.117358887135,20.627814056283));
#1007 = CARTESIAN_POINT('',(1.174132121003,20.608440974975));
#1008 = CARTESIAN_POINT('',(1.333019722145,20.561530081844));
#1009 = CARTESIAN_POINT('',(1.434005491859,20.54037165662));
#1010 = CARTESIAN_POINT('',(1.534110388847,20.529714310358));
#1011 = CARTESIAN_POINT('',(1.633928921054,20.530255921789));
#1012 = CARTESIAN_POINT('',(1.734027688082,20.542064914624));
#1013 = CARTESIAN_POINT('',(1.834979659605,20.564585461049));
#1014 = CARTESIAN_POINT('',(1.937401372133,20.596597000702));
#1015 = CARTESIAN_POINT('',(2.158624810978,20.680176300582));
#1016 = CARTESIAN_POINT('',(2.281375596795,20.734851341684));
#1017 = CARTESIAN_POINT('',(2.409629632657,20.797631205436));
#1018 = CARTESIAN_POINT('',(2.543249769427,20.863473406805));
#1019 = CARTESIAN_POINT('',(2.682398414146,20.924817750443));
#1020 = CARTESIAN_POINT('',(2.827703253996,20.973173818812));
#1021 = CARTESIAN_POINT('',(2.980099004596,21.));
#1022 = CARTESIAN_POINT('',(3.14159265359,21.));
#1023 = ( GEOMETRIC_REPRESENTATION_CONTEXT(2) 
PARAMETRIC_REPRESENTATION_CONTEXT() REPRESENTATION_CONTEXT('2D SPACE',''
  ) );
#1024 = FACE_BOUND('',#1025,.T.);
#1025 = EDGE_LOOP('',(#1026));
#1026 = ORIENTED_EDGE('',*,*,#1027,.T.);
#1027 = EDGE_CURVE('',#1028,#1028,#1030,.T.);
#1028 = VERTEX_POINT('',#1029);
#1029 = CARTESIAN_POINT('',(-10.,7.347880794884E-16,183.));
#1030 = SURFACE_CURVE('',#1031,(#1097,#1166),.PCURVE_S1.);
#1031 = B_SPLINE_CURVE_WITH_KNOTS('',8,(#1032,#1033,#1034,#1035,#1036,
    #1037,#1038,#1039,#1040,#1041,#1042,#1043,#1044,#1045,#1046,#1047,
    #1048,#1049,#1050,#1051,#1052,#1053,#1054,#1055,#1056,#1057,#1058,
    #1059,#1060,#1061,#1062,#1063,#1064,#1065,#1066,#1067,#1068,#1069,
    #1070,#1071,#1072,#1073,#1074,#1075,#1076,#1077,#1078,#1079,#1080,
    #1081,#1082,#1083,#1084,#1085,#1086,#1087,#1088,#1089,#1090,#1091,
    #1092,#1093,#1094,#1095,#1096),.UNSPECIFIED.,.T.,.F.,(9,7,7,7,7,7,7,
    7,7,9),(0.,0.107670835319,0.188132061982,0.334644487216,
    0.454727500173,0.546131580753,0.666214593711,0.751066959802,
    0.863011336683,1.),.UNSPECIFIED.);
#1032 = CARTESIAN_POINT('',(-10.,8.881784197001E-16,183.));
#1033 = CARTESIAN_POINT('',(-10.,-0.312050401822,183.));
#1034 = CARTESIAN_POINT('',(-9.98887097216,-0.616955980581,
    182.96290502052));
#1035 = CARTESIAN_POINT('',(-9.967507192217,-0.909728179468,
    182.89168519988));
#1036 = CARTESIAN_POINT('',(-9.937692349784,-1.185994667508,
    182.78997692661));
#1037 = CARTESIAN_POINT('',(-9.901859619498,-1.44205640488,
    182.66211287315));
#1038 = CARTESIAN_POINT('',(-9.862727422858,-1.675013628769,
    182.51315998338));
#1039 = CARTESIAN_POINT('',(-9.822891330553,-1.882937447045,
    182.34895449945));
#1040 = CARTESIAN_POINT('',(-9.755727682535,-2.201164685674,
    182.04696812583));
#1041 = CARTESIAN_POINT('',(-9.727317547585,-2.32506600592,
    181.91090185394));
#1042 = CARTESIAN_POINT('',(-9.699845187884,-2.437051146424,
    181.76906461973));
#1043 = CARTESIAN_POINT('',(-9.673831169375,-2.537416277583,
    181.62240408259));
#1044 = CARTESIAN_POINT('',(-9.649704478467,-2.626449653128,
    181.47170576797));
#1045 = CARTESIAN_POINT('',(-9.627814056283,-2.704412218714,
    181.31762259863));
#1046 = CARTESIAN_POINT('',(-9.608440974975,-2.771519457583,
    181.16070342833));
#1047 = CARTESIAN_POINT('',(-9.561530081738,-2.930632771264,
    180.71138129155));
#1048 = CARTESIAN_POINT('',(-9.540371657204,-2.997765313398,
    180.41376228844));
#1049 = CARTESIAN_POINT('',(-9.529714309233,-3.03020154707,
    180.11189193251));
#1050 = CARTESIAN_POINT('',(-9.530255922383,-3.028365389175,
    179.80858688823));
#1051 = CARTESIAN_POINT('',(-9.542064915724,-2.992277798481,
    179.50653697502));
#1052 = CARTESIAN_POINT('',(-9.564585459167,-2.921577807613,
    179.20853315952));
#1053 = CARTESIAN_POINT('',(-9.596597001637,-2.815527894427,
    178.91771683038));
#1054 = CARTESIAN_POINT('',(-9.668528325391,-2.556218361791,
    178.40879321746));
#1055 = CARTESIAN_POINT('',(-9.706068121409,-2.414606052754,
    178.18640442935));
#1056 = CARTESIAN_POINT('',(-9.747715344149,-2.247324784702,
    177.9730884032));
#1057 = CARTESIAN_POINT('',(-9.792031961346,-2.053449920865,
    177.77170966149));
#1058 = CARTESIAN_POINT('',(-9.837110066302,-1.832142576851,
    177.58586990998));
#1059 = CARTESIAN_POINT('',(-9.880478456352,-1.582843439151,
    177.42004162202));
#1060 = CARTESIAN_POINT('',(-9.919118945201,-1.305575155357,
    177.27978231159));
#1061 = CARTESIAN_POINT('',(-9.973032975716,-0.769905987584,
    177.09009191055));
#1062 = CARTESIAN_POINT('',(-9.991708044406,-0.522565313541,
    177.02688076258));
#1063 = CARTESIAN_POINT('',(-10.00385241458,-0.26413669335,
    176.98712969875));
#1064 = CARTESIAN_POINT('',(-10.00806977954,4.11670697531E-13,
    176.97357890101));
#1065 = CARTESIAN_POINT('',(-10.00385241458,0.26413669335,
    176.98712969875));
#1066 = CARTESIAN_POINT('',(-9.991708044406,0.52256531354,
    177.02688076258));
#1067 = CARTESIAN_POINT('',(-9.973032975716,0.769905987585,
    177.09009191055));
#1068 = CARTESIAN_POINT('',(-9.919118945201,1.305575155357,
    177.27978231159));
#1069 = CARTESIAN_POINT('',(-9.880478456352,1.582843439151,
    177.42004162202));
#1070 = CARTESIAN_POINT('',(-9.837110066303,1.832142576851,
    177.58586990998));
#1071 = CARTESIAN_POINT('',(-9.792031961346,2.053449920865,
    177.77170966149));
#1072 = CARTESIAN_POINT('',(-9.747715344149,2.247324784702,
    177.9730884032));
#1073 = CARTESIAN_POINT('',(-9.706068121409,2.414606052753,
    178.18640442935));
#1074 = CARTESIAN_POINT('',(-9.668528325391,2.556218361791,
    178.40879321746));
#1075 = CARTESIAN_POINT('',(-9.613233781722,2.755552970524,
    178.80000941467));
#1076 = CARTESIAN_POINT('',(-9.592864558617,2.825846690348,
    178.96570083388));
#1077 = CARTESIAN_POINT('',(-9.575402789156,2.884120898528,
    179.13433482022));
#1078 = CARTESIAN_POINT('',(-9.561144454889,2.930556984426,
    179.3052360265));
#1079 = CARTESIAN_POINT('',(-9.550306349772,2.965294550006,
    179.47779920595));
#1080 = CARTESIAN_POINT('',(-9.54303137379,2.988427609642,
    179.65146717456));
#1081 = CARTESIAN_POINT('',(-9.539392014169,3.,179.82570922608));
#1082 = CARTESIAN_POINT('',(-9.539392014169,3.,180.22993904567));
#1083 = CARTESIAN_POINT('',(-9.545726386695,2.979858673617,
    180.45967924759));
#1084 = CARTESIAN_POINT('',(-9.558375595291,2.939634897173,
    180.68809034737));
#1085 = CARTESIAN_POINT('',(-9.577122805158,2.879191725893,
    180.91399906005));
#1086 = CARTESIAN_POINT('',(-9.601544579972,2.798219837267,
    181.13612415207));
#1087 = CARTESIAN_POINT('',(-9.630989886553,2.696264749284,
    181.35298841143));
#1088 = CARTESIAN_POINT('',(-9.664547407381,2.572757813527,
    181.56280750982));
#1089 = CARTESIAN_POINT('',(-9.745610377783,2.248746502909,
    182.00877081978));
#1090 = CARTESIAN_POINT('',(-9.795849048768,2.032033985865,
    182.24740993606));
#1091 = CARTESIAN_POINT('',(-9.849080454573,1.775746320051,
    182.46911547985));
#1092 = CARTESIAN_POINT('',(-9.901203554957,1.480883839595,
    182.66421770652));
#1093 = CARTESIAN_POINT('',(-9.94706249562,1.150362644052,
    182.82353941294));
#1094 = CARTESIAN_POINT('',(-9.98148903793,0.788791310175,
    182.93829722887));
#1095 = CARTESIAN_POINT('',(-10.,0.402455410775,183.));
#1096 = CARTESIAN_POINT('',(-10.,8.881784197001E-16,183.));
#1097 = PCURVE('',#723,#1098);
#1098 = DEFINITIONAL_REPRESENTATION('',(#1099),#1165);
#1099 = B_SPLINE_CURVE_WITH_KNOTS('',8,(#1100,#1101,#1102,#1103,#1104,
    #1105,#1106,#1107,#1108,#1109,#1110,#1111,#1112,#1113,#1114,#1115,
    #1116,#1117,#1118,#1119,#1120,#1121,#1122,#1123,#1124,#1125,#1126,
    #1127,#1128,#1129,#1130,#1131,#1132,#1133,#1134,#1135,#1136,#1137,
    #1138,#1139,#1140,#1141,#1142,#1143,#1144,#1145,#1146,#1147,#1148,
    #1149,#1150,#1151,#1152,#1153,#1154,#1155,#1156,#1157,#1158,#1159,
    #1160,#1161,#1162,#1163,#1164),.UNSPECIFIED.,.T.,.F.,(9,7,7,7,7,7,7,
    7,7,9),(0.,0.107670835319,0.188132061982,0.334644487216,
    0.454727500173,0.546131580753,0.666214593711,0.751066959802,
    0.863011336683,1.),.UNSPECIFIED.);
#1100 = CARTESIAN_POINT('',(3.14159265359,13.));
#1101 = CARTESIAN_POINT('',(3.172797693772,13.));
#1102 = CARTESIAN_POINT('',(3.203288282618,12.962905020526));
#1103 = CARTESIAN_POINT('',(3.232611676523,12.891685199882));
#1104 = CARTESIAN_POINT('',(3.260368553524,12.789976926613));
#1105 = CARTESIAN_POINT('',(3.286203374857,12.66211287315));
#1106 = CARTESIAN_POINT('',(3.309815001383,12.513159983385));
#1107 = CARTESIAN_POINT('',(3.330981824221,12.348954499459));
#1108 = CARTESIAN_POINT('',(3.363505589535,12.046968125837));
#1109 = CARTESIAN_POINT('',(3.376215345045,11.910901853944));
#1110 = CARTESIAN_POINT('',(3.387743895321,11.769064619732));
#1111 = CARTESIAN_POINT('',(3.398110613612,11.622404082599));
#1112 = CARTESIAN_POINT('',(3.407334233349,11.471705767975));
#1113 = CARTESIAN_POINT('',(3.415431604954,11.317622598637));
#1114 = CARTESIAN_POINT('',(3.422416262635,11.160703428332));
#1115 = CARTESIAN_POINT('',(3.439004715997,10.711381291555));
#1116 = CARTESIAN_POINT('',(3.446042296491,10.413762288442));
#1117 = CARTESIAN_POINT('',(3.44945673092,10.111891932511));
#1118 = CARTESIAN_POINT('',(3.44926559728,9.80858688823));
#1119 = CARTESIAN_POINT('',(3.445468029084,9.506536975028));
#1120 = CARTESIAN_POINT('',(3.438048419495,9.208533159527));
#1121 = CARTESIAN_POINT('',(3.426973629914,8.917716830389));
#1122 = CARTESIAN_POINT('',(3.400063492595,8.408793217461));
#1123 = CARTESIAN_POINT('',(3.385414072276,8.186404429359));
#1124 = CARTESIAN_POINT('',(3.368178804586,7.973088403202));
#1125 = CARTESIAN_POINT('',(3.348299088173,7.771709661497));
#1126 = CARTESIAN_POINT('',(3.325728904406,7.585869909986));
#1127 = CARTESIAN_POINT('',(3.300446347045,7.420041622023));
#1128 = CARTESIAN_POINT('',(3.272471973389,7.279782311592));
#1129 = CARTESIAN_POINT('',(3.218634423297,7.090091910551));
#1130 = CARTESIAN_POINT('',(3.193837676001,7.026880762583));
#1131 = CARTESIAN_POINT('',(3.167983892927,6.987129698752));
#1132 = CARTESIAN_POINT('',(3.14159265359,6.973578901014));
#1133 = CARTESIAN_POINT('',(3.115201414253,6.987129698752));
#1134 = CARTESIAN_POINT('',(3.089347631179,7.026880762582));
#1135 = CARTESIAN_POINT('',(3.064550883882,7.090091910551));
#1136 = CARTESIAN_POINT('',(3.01071333379,7.279782311592));
#1137 = CARTESIAN_POINT('',(2.982738960134,7.420041622023));
#1138 = CARTESIAN_POINT('',(2.957456402774,7.585869909986));
#1139 = CARTESIAN_POINT('',(2.934886219007,7.771709661497));
#1140 = CARTESIAN_POINT('',(2.915006502593,7.973088403202));
#1141 = CARTESIAN_POINT('',(2.897771234903,8.186404429358));
#1142 = CARTESIAN_POINT('',(2.883121814584,8.408793217461));
#1143 = CARTESIAN_POINT('',(2.862435642198,8.80000941467));
#1144 = CARTESIAN_POINT('',(2.855117574456,8.965700833883));
#1145 = CARTESIAN_POINT('',(2.84903448716,9.134334820227));
#1146 = CARTESIAN_POINT('',(2.844177013655,9.305236026503));
#1147 = CARTESIAN_POINT('',(2.840538116888,9.477799205959));
#1148 = CARTESIAN_POINT('',(2.838113117236,9.651467174562));
#1149 = CARTESIAN_POINT('',(2.836899999574,9.825709226082));
#1150 = CARTESIAN_POINT('',(2.836899999574,10.229939045676));
#1151 = CARTESIAN_POINT('',(2.839011402828,10.459679247594));
#1152 = CARTESIAN_POINT('',(2.843227953742,10.688090347378));
#1153 = CARTESIAN_POINT('',(2.849556292155,10.913999060053));
#1154 = CARTESIAN_POINT('',(2.858013203748,11.136124152076));
#1155 = CARTESIAN_POINT('',(2.868623642486,11.352988411435));
#1156 = CARTESIAN_POINT('',(2.881419525099,11.562807509823));
#1157 = CARTESIAN_POINT('',(2.914819305724,12.008770819786));
#1158 = CARTESIAN_POINT('',(2.937061901082,12.247409936068));
#1159 = CARTESIAN_POINT('',(2.963225820295,12.469115479859));
#1160 = CARTESIAN_POINT('',(2.9931404928,12.664217706528));
#1161 = CARTESIAN_POINT('',(3.026457017159,12.823539412949));
#1162 = CARTESIAN_POINT('',(3.062713530038,12.938297228872));
#1163 = CARTESIAN_POINT('',(3.101347112512,13.));
#1164 = CARTESIAN_POINT('',(3.14159265359,13.));
#1165 = ( GEOMETRIC_REPRESENTATION_CONTEXT(2) 
PARAMETRIC_REPRESENTATION_CONTEXT() REPRESENTATION_CONTEXT('2D SPACE',''
  ) );
#1166 = PCURVE('',#861,#1167);
#1167 = DEFINITIONAL_REPRESENTATION('',(#1168),#1234);
#1168 = B_SPLINE_CURVE_WITH_KNOTS('',8,(#1169,#1170,#1171,#1172,#1173,
    #1174,#1175,#1176,#1177,#1178,#1179,#1180,#1181,#1182,#1183,#1184,
    #1185,#1186,#1187,#1188,#1189,#1190,#1191,#1192,#1193,#1194,#1195,
    #1196,#1197,#1198,#1199,#1200,#1201,#1202,#1203,#1204,#1205,#1206,
    #1207,#1208,#1209,#1210,#1211,#1212,#1213,#1214,#1215,#1216,#1217,
    #1218,#1219,#1220,#1221,#1222,#1223,#1224,#1225,#1226,#1227,#1228,
    #1229,#1230,#1231,#1232,#1233),.UNSPECIFIED.,.F.,.F.,(9,7,7,7,7,7,7,
    7,7,9),(0.,0.107670835319,0.188132061982,0.334644487216,
    0.454727500173,0.546131580753,0.666214593711,0.751066959802,
    0.863011336683,1.),.UNSPECIFIED.);
#1169 = CARTESIAN_POINT('',(0.,1.));
#1170 = CARTESIAN_POINT('',(0.104016800607,1.));
#1171 = CARTESIAN_POINT('',(0.20565192117,1.01112902784));
#1172 = CARTESIAN_POINT('',(0.304957782832,1.032492807783));
#1173 = CARTESIAN_POINT('',(0.40186146216,1.062307650216));
#1174 = CARTESIAN_POINT('',(0.496176215043,1.098140380502));
#1175 = CARTESIAN_POINT('',(0.587573774413,1.137272577142));
#1176 = CARTESIAN_POINT('',(0.675525220787,1.177108669447));
#1177 = CARTESIAN_POINT('',(0.8217610825,1.244272317465));
#1178 = CARTESIAN_POINT('',(0.882940074502,1.272682452415));
#1179 = CARTESIAN_POINT('',(0.942934402313,1.300154812116));
#1180 = CARTESIAN_POINT('',(1.001903665563,1.326168830625));
#1181 = CARTESIAN_POINT('',(1.059996976875,1.350295521533));
#1182 = CARTESIAN_POINT('',(1.117358887135,1.372185943717));
#1183 = CARTESIAN_POINT('',(1.174132121003,1.391559025025));
#1184 = CARTESIAN_POINT('',(1.333019722502,1.438469918262));
#1185 = CARTESIAN_POINT('',(1.43400549256,1.459628342796));
#1186 = CARTESIAN_POINT('',(1.534110385524,1.470285690767));
#1187 = CARTESIAN_POINT('',(1.633928923299,1.469744077617));
#1188 = CARTESIAN_POINT('',(1.734027691398,1.457935084276));
#1189 = CARTESIAN_POINT('',(1.834979654086,1.435414540833));
#1190 = CARTESIAN_POINT('',(1.937401374607,1.403402998363));
#1191 = CARTESIAN_POINT('',(2.127794149187,1.331471674609));
#1192 = CARTESIAN_POINT('',(2.215273936052,1.293931878591));
#1193 = CARTESIAN_POINT('',(2.304906488642,1.252284655851));
#1194 = CARTESIAN_POINT('',(2.397098875798,1.207968038654));
#1195 = CARTESIAN_POINT('',(2.492292104808,1.162889933698));
#1196 = CARTESIAN_POINT('',(2.59097106658,1.119521543648));
#1197 = CARTESIAN_POINT('',(2.693699453391,1.080881054799));
#1198 = CARTESIAN_POINT('',(2.883120766738,1.026967024284));
#1199 = CARTESIAN_POINT('',(2.96787206933,1.008291955594));
#1200 = CARTESIAN_POINT('',(3.054332944706,0.996147585415));
#1201 = CARTESIAN_POINT('',(3.14159265359,0.99193022046));
#1202 = CARTESIAN_POINT('',(3.228852362474,0.996147585416));
#1203 = CARTESIAN_POINT('',(3.315313237849,1.008291955594));
#1204 = CARTESIAN_POINT('',(3.400064540442,1.026967024284));
#1205 = CARTESIAN_POINT('',(3.589485853788,1.080881054799));
#1206 = CARTESIAN_POINT('',(3.6922142406,1.119521543648));
#1207 = CARTESIAN_POINT('',(3.790893202371,1.162889933697));
#1208 = CARTESIAN_POINT('',(3.886086431382,1.207968038654));
#1209 = CARTESIAN_POINT('',(3.978278818538,1.252284655851));
#1210 = CARTESIAN_POINT('',(4.067911371127,1.293931878591));
#1211 = CARTESIAN_POINT('',(4.155391157992,1.331471674609));
#1212 = CARTESIAN_POINT('',(4.301748558897,1.386766218278));
#1213 = CARTESIAN_POINT('',(4.361596899976,1.407135441383));
#1214 = CARTESIAN_POINT('',(4.420839105714,1.424597210844));
#1215 = CARTESIAN_POINT('',(4.479606486632,1.438855545111));
#1216 = CARTESIAN_POINT('',(4.538023353379,1.449693650228));
#1217 = CARTESIAN_POINT('',(4.596211296431,1.45696862621));
#1218 = CARTESIAN_POINT('',(4.654292055745,1.460607985831));
#1219 = CARTESIAN_POINT('',(4.789035328943,1.460607985831));
#1220 = CARTESIAN_POINT('',(4.865615938244,1.454273613305));
#1221 = CARTESIAN_POINT('',(4.942437731854,1.441624404709));
#1222 = CARTESIAN_POINT('',(5.01979481646,1.422877194842));
#1223 = CARTESIAN_POINT('',(5.097979336626,1.398455420028));
#1224 = CARTESIAN_POINT('',(5.177295545158,1.369010113447));
#1225 = CARTESIAN_POINT('',(5.25807708906,1.335452592619));
#1226 = CARTESIAN_POINT('',(5.441824077922,1.254389622217));
#1227 = CARTESIAN_POINT('',(5.548638786526,1.204150951232));
#1228 = CARTESIAN_POINT('',(5.660214940143,1.150919545427));
#1229 = CARTESIAN_POINT('',(5.776075960551,1.098796445043));
#1230 = CARTESIAN_POINT('',(5.896053297432,1.05293750438));
#1231 = CARTESIAN_POINT('',(6.020254659883,1.01851096207));
#1232 = CARTESIAN_POINT('',(6.149033503588,1.));
#1233 = CARTESIAN_POINT('',(6.28318530718,1.));
#1234 = ( GEOMETRIC_REPRESENTATION_CONTEXT(2) 
PARAMETRIC_REPRESENTATION_CONTEXT() REPRESENTATION_CONTEXT('2D SPACE',''
  ) );
#1235 = ADVANCED_FACE('',(#1236),#861,.F.);
#1236 = FACE_BOUND('',#1237,.F.);
#1237 = EDGE_LOOP('',(#1238,#1239,#1260,#1261,#1262));
#1238 = ORIENTED_EDGE('',*,*,#923,.F.);
#1239 = ORIENTED_EDGE('',*,*,#1240,.F.);
#1240 = EDGE_CURVE('',#1028,#739,#1241,.T.);
#1241 = SEAM_CURVE('',#1242,(#1246,#1253),.PCURVE_S1.);
#1242 = LINE('',#1243,#1244);
#1243 = CARTESIAN_POINT('',(-11.,7.347880794884E-16,183.));
#1244 = VECTOR('',#1245,1.);
#1245 = DIRECTION('',(1.,0.,0.));
#1246 = PCURVE('',#861,#1247);
#1247 = DEFINITIONAL_REPRESENTATION('',(#1248),#1252);
#1248 = LINE('',#1249,#1250);
#1249 = CARTESIAN_POINT('',(6.28318530718,-0.));
#1250 = VECTOR('',#1251,1.);
#1251 = DIRECTION('',(0.,1.));
#1252 = ( GEOMETRIC_REPRESENTATION_CONTEXT(2) 
PARAMETRIC_REPRESENTATION_CONTEXT() REPRESENTATION_CONTEXT('2D SPACE',''
  ) );
#1253 = PCURVE('',#861,#1254);
#1254 = DEFINITIONAL_REPRESENTATION('',(#1255),#1259);
#1255 = LINE('',#1256,#1257);
#1256 = CARTESIAN_POINT('',(0.,-0.));
#1257 = VECTOR('',#1258,1.);
#1258 = DIRECTION('',(0.,1.));
#1259 = ( GEOMETRIC_REPRESENTATION_CONTEXT(2) 
PARAMETRIC_REPRESENTATION_CONTEXT() REPRESENTATION_CONTEXT('2D SPACE',''
  ) );
#1260 = ORIENTED_EDGE('',*,*,#1027,.T.);
#1261 = ORIENTED_EDGE('',*,*,#1240,.T.);
#1262 = ORIENTED_EDGE('',*,*,#791,.F.);
#1263 = ADVANCED_FACE('',(#1264),#778,.T.);
#1264 = FACE_BOUND('',#1265,.T.);
#1265 = EDGE_LOOP('',(#1266));
#1266 = ORIENTED_EDGE('',*,*,#763,.T.);
#1267 = ( GEOMETRIC_REPRESENTATION_CONTEXT(3) 
GLOBAL_UNCERTAINTY_ASSIGNED_CONTEXT((#1271)) 
GLOBAL_UNIT_ASSIGNED_CONTEXT((#1268,#1269,#1270)) REPRESENTATION_CONTEXT
('Context #1','3D Context with UNIT and UNCERTAINTY') );
#1268 = ( LENGTH_UNIT() NAMED_UNIT(*) SI_UNIT(.MILLI.,.METRE.) );
#1269 = ( NAMED_UNIT(*) PLANE_ANGLE_UNIT() SI_UNIT($,.RADIAN.) );
#1270 = ( NAMED_UNIT(*) SI_UNIT($,.STERADIAN.) SOLID_ANGLE_UNIT() );
#1271 = UNCERTAINTY_MEASURE_WITH_UNIT(LENGTH_MEASURE(1.E-07),#1268,
  'distance_accuracy_value','confusion accuracy');
#1272 = PRODUCT_RELATED_PRODUCT_CATEGORY('part',$,(#7));
ENDSEC;
END-ISO-10303-21;
